<svg xmlns="http://www.w3.org/2000/svg" width="256" height="256"><path fill-opacity=".333" d="M0 127.511v97.497l128.25-.254 128.25-.254.255-97.5.255-97.5-128.505.258L0 30.015v97.496m.481-.011c0 53.9.121 75.803.269 48.674.148-27.129.148-71.229 0-98S.481 73.6.481 127.5" fill="#1976D2" fill-rule="evenodd"/><path fill-opacity=".383" d="M.015 90.25C.025 129.518.368 149.978 1 149c.533-.825.976-2.891.985-4.59.029-5.891 3.968-18.501 8.55-27.373 8.169-15.816 22.518-27.058 38.965-30.526 14.009-2.954 30.663-1.241 40.752 4.193 7.967 4.291 16.71 13.563 21.025 22.296 5.325 10.778 6.856 17.606 7.454 33.25l.525 13.75H23.713l.651 7.01c1.639 17.637 11.486 30.858 27.659 37.136 10.933 4.244 34.35 3.532 48.697-1.481l6.859-2.396 1.711 7.616c.941 4.188 1.711 8.165 1.71 8.836 0 1.216-8.062 3.964-19.5 6.649-5.46 1.282-1.992 1.412 38.5 1.446l44.5.038-11-2.793c-10.647-2.703-19.921-6.315-21.098-8.219-.513-.83 2.192-11.014 4.627-17.419l.94-2.472 5.029 2.548c2.765 1.401 9.185 3.941 14.265 5.644 10.865 3.641 25.588 4.871 34.956 2.919 16.268-3.388 27.26-14.227 28.52-28.119.801-8.834-.408-14.12-4.773-20.875-4.729-7.316-14.594-14.237-27.253-19.119-21.193-8.172-33.52-15.459-41.961-24.802-11.615-12.856-14.158-34.612-6.066-51.895 6.464-13.805 23.87-25.694 40.814-27.878 2.75-.355 5.675-1.02 6.5-1.479.825-.459-43.387-.848-98.25-.865L0 30l.015 60.25M216 30.897c.825.46 4.2 1.128 7.5 1.486 7.091.768 19.201 4.181 21.92 6.177 1.88 1.38 1.861 1.61-.904 10.973-2.309 7.819-3.115 9.438-4.42 8.879-19.651-8.418-40.484-9.977-53.62-4.011-6.585 2.99-13.025 9.811-15.091 15.983-3.689 11.022-.223 23.319 8.735 30.987 4.831 4.135 16.932 10.613 26.59 14.234 10.933 4.1 25.354 12.083 31.377 17.37C249.834 143.287 255 154.907 255 171.018c0 18.696-7.358 33.039-22.077 43.034-4.865 3.304-17.41 8.359-25.423 10.245-1.1.259 9.336.523 23.191.587 13.855.064 25.427-.266 25.716-.733.288-.467.241-44.342-.105-97.5L255.673 30l-20.587.03c-11.579.018-19.93.397-19.086.867m-165.237 72.56c-12.152 4.649-21.689 16.648-25.255 31.774-.813 3.448-1.485 6.607-1.493 7.019-.008.412 16.185.75 35.985.75h36v-3.951c0-9.467-4.057-20.627-9.929-27.316-1.613-1.837-5.327-4.647-8.252-6.244-4.575-2.498-6.579-2.943-14.319-3.183-6.01-.187-10.242.196-12.737 1.151M1.136 196.25L1 225l25.75-.051 25.75-.05-9.63-3.2C19.403 213.903 5.71 196.728 1.652 170c-.209-1.375-.441 10.438-.516 26.25" fill="#1976D2" fill-rule="evenodd"/><path fill-opacity=".657" d="M.078 87.75l.078 57.75 2.248-8.5c4.603-17.405 10.426-27.924 20.749-37.481C33.365 90.065 45.263 85.155 60 84.313c11.747-.67 19.383.689 28.5 5.074 14.644 7.043 23.078 18.101 29.07 38.113 1.323 4.417 1.814 9.561 1.863 19.5l.067 13.5-47.783.26-47.783.259.687 5.241c.979 7.476 4.733 17.94 8.287 23.106 10.986 15.968 37.449 21.261 65.561 13.115 4.866-1.41 9.165-2.208 9.552-1.773.791.89 3.979 13.419 3.979 15.639 0 1.67-5.601 4.09-15.5 6.699l-7 1.844h81l-7-1.843c-8.457-2.225-20.028-6.773-21.38-8.402-.662-.799-.023-4.407 1.966-11.097 1.621-5.453 3.119-10.087 3.329-10.297.211-.21 2.791.971 5.734 2.625 7.989 4.491 21.789 8.183 33.04 8.841 20.521 1.201 33.949-4.462 40.62-17.127 2.363-4.486 2.681-6.218 2.681-14.59 0-8.382-.317-10.102-2.692-14.613-1.481-2.812-4.854-6.917-7.495-9.122-5.489-4.581-18.117-11.168-28.626-14.93-10.555-3.779-22.646-10.831-30.09-17.549-5.127-4.627-7.452-7.727-10.674-14.229-3.55-7.165-4.191-9.47-4.64-16.685-.97-15.58 3.601-27.957 14.169-38.372 7.202-7.096 15.012-11.47 26.598-14.893l8.46-2.501-97.25-.053L0 30l.078 57.75m230.503-54.818C242.726 36.047 248 38.315 248 40.424c0 1.004-5.596 17.709-6.457 19.276-.06.11-3.866-1.314-8.456-3.165-19.53-7.874-41.216-6.937-52.859 2.284-12.716 10.072-12.985 30.047-.556 41.262 5.787 5.221 9.639 7.318 27.983 15.233 30.521 13.168 41.545 23.179 46.897 42.585 1.061 3.847 1.284-6.26 1.359-61.649L256 30l-18.25.045-18.25.046 11.081 2.841M56.942 103.06c-14.686 2.317-23.626 11.19-30.074 29.847-1.027 2.973-1.868 6.466-1.868 7.762v2.357l35.25-.263 35.25-.263-.225-5.5c-.601-14.709-10.24-29.283-21.394-32.345-7.433-2.041-11.615-2.434-16.939-1.595M.053 197.75L0 225l24.75-.054 24.75-.054-5.5-1.781c-10.541-3.415-18.226-8.092-25.632-15.601-7.955-8.065-11.726-14.893-15.755-28.528L.106 170.5l-.053 27.25m254.291-13c-3.376 14.192-14.076 27.185-27.724 33.661-4.226 2.005-10.032 4.279-12.902 5.052-4.894 1.318-3.743 1.409 18.532 1.471L256 225v-22.5c0-12.375-.119-22.5-.263-22.5-.145 0-.772 2.137-1.393 4.75" fill="#1976D2" fill-rule="evenodd"/></svg>