<?xml version="1.0" encoding="utf-8"?>
<!-- Generator: Adobe Illustrator 27.2.0, SVG Export Plug-In . SVG Version: 6.00 Build 0)  -->
<svg version="1.1" id="svg2" xmlns="http://www.w3.org/2000/svg" xmlns:xlink="http://www.w3.org/1999/xlink" x="0px" y="0px"
	 viewBox="0 0 2160 449" style="enable-background:new 0 0 2160 449;" xml:space="preserve">
<style type="text/css">
	.st0{fill:#0067B1;}
	.st1{fill:#B5121B;}
</style>
<g>
	<path class="st0" d="M39,211.9c0,0,19.1-9.5,32.1-17.9c12.9-8.4,21.5-26.8,33.5-45.8s35.6-36.8,42.1-35.1c2.5,5.1,0.6,7.4,0.6,7.4
		s-14.6,9.5-27.1,23.5s-21.1,37.2-40.7,52.4C59.9,211.6,39,211.9,39,211.9z"/>
	<path class="st0" d="M183.8,98.6c0,0,7.7-2.6,9.5-6.5c0-8.5,2.9-19,2.9-22.8s-5.2-8.5-3.5-13.3c1.8-4.7,4.2-10.2,0.7-12.5
		c-3.6-2.3-9.9-1.2-9.9-1.2s-2.6,5.5,1.2,9.3c-1.7,5.3-3.7,9.9-1.7,11.8c2,2,3.5,3.6,2.4,14S183.8,98.6,183.8,98.6z"/>
	<path class="st0" d="M205.6,115.9c-0.6,0.4-10.7,1.6-8.8-6.6c8.9-5.5,20.6-15.1,32.5-33.3s22.2-40.4,42.3-53.5
		C291.5,9.5,310.8,1,310.8,1l-3.2,6.3c0,0-13.5,4.2-25.5,13.6S262,45,251.9,60.7C241.7,76.3,232.5,99.6,205.6,115.9z"/>
	<path class="st0" d="M193.8,125.3c-1.9-12.1-10-16.4-15.5-16.4s-16.9,2.8-27.2,23.9s-16.2,45.3-15.3,66.3s1.8,23.3,1.8,23.3
		s-18.4,28.4-34.3,49.2c-15.8,20.7-84.5,98.3-87.4,111.3l12.5-9.1c0,0,30-34.2,48.7-56.7c18.8-22.5,32.7-36.6,49.3-59
		c11.9-14.4,14.6-16,14.6-16s0.8,36.2-4.1,56.9c-4.8,20.6-19,52.5-30.9,67.9c11.7-9.3,22.7-20.3,22.7-20.3s12.7-13,19.9-39.2
		c7.3-26.2,8.2-56,6.2-74c-0.5-4.8-1.2-10-1.7-15.3c4-5.1,11.6-15.2,20.1-29.4C185.9,167.5,195.7,137.4,193.8,125.3z M150.1,178.1
		c0-14.6,11.8-51.2,25.3-53.4c10.8-2,9.6,7.8,4.2,25.2c-4.9,15.7-15.5,37.2-28.1,51.9C150.6,193,150.1,184.7,150.1,178.1z"/>
	<path class="st0" d="M308.7,22.1c0,0-2.4,7.7-9,24.4s-14.1,43.6-11.3,60.1c2.9,16.5,8.3,34,8.3,34s-3.2,8.1-9.8,1.5
		c-3.9-15.2-14.6-40.8-6.5-65.3s17.9-35.9,17.9-35.9S296.5,24.7,308.7,22.1z"/>
	<path class="st0" d="M364.9,289c-12.8-7.1-33.8-20.5-50.8-45.7c-5.2-7.7-9.8-15.7-13.5-23.5c7.9-9.1,14.1-17.4,18.9-25.3
		c11-18.2,15.9-49.9,2-51c-14.6-1.1-41.8,22-37.9,56.4c0.8,7.1,2.7,14.3,5.4,21.3c-0.1,0.1-0.2,0.2-0.3,0.3
		c-36.8,40.5-72.3,67.5-111.9,87.7c-8,4.1-15.5,7-22.3,9.2c-6.7-8.1-9-12.2-9-12.2s0,2.6-1.1,2.6c1.9,3.7,3.8,7.3,5.9,10.8
		c-24.2,6.7-39,2.6-39,2.6c4.8,7.2,12.8,12.8,42.1,6.2c0.6-0.1,1.3-0.3,2-0.5c17.4,26.6,42.2,48.8,79.4,57.5
		c45.9,10.7,75.6,5.5,111.4-8.7s41.7-33.2,45.4-46.9C395.9,308.4,377.7,296.1,364.9,289z M296.5,171.6c11-18,24.8-26,28-13.2
		c2.8,11.4-5.5,28.9-27.2,53.7C291.5,196.8,290,182.3,296.5,171.6z M381.3,328c-4.2,22.9-36.2,47.8-87.4,51.6
		c-51.1,3.8-90.4-10.1-115.8-35.5c-7-7-12.5-12.9-17-18c29.3-9.7,70.5-38.7,98.1-64.4c13-12.2,24-22.9,33.1-32.7
		c11.3,23.7,31,44.7,47.3,55.6C362.5,299.7,384.5,316.1,381.3,328z"/>
	<path class="st0" d="M335.8,151.7v-3.1c0,0,6.1-5.8,19.8,8c13.7,13.7,17.5,24.7,27.7,47.4c9.9,20.9,17.4,28.5,22,29.6
		c4.6,1.2,14,7,16.4,15.4c-10.5-1-36-9.3-52.5-44.2C356.5,179.6,358.7,163.7,335.8,151.7z"/>
	<path class="st0" d="M406,148.3c-19.7-5.1-31.9-11.8-42.7-24.9c-14-18.6-28.3-29-28.3-29s-6.8-1.7-7.4-1.7l0.1,2
		c16.7,14.2,28.9,38.9,44.2,46.8c15.2,8,35,9.2,35,9.2S406.9,149.2,406,148.3z"/>
	<path class="st0" d="M309.1,131.8c0,0,3.1,0.5,3.1-5.8s1.7-8.8,3.7-13.1c2-4.4-0.3-14.1-0.3-14.1s7.8-6.2,7.8-10.5
		c9,0.9,20.1,0,32.5,14.4c12.5,14.4,15.6,23.9,31,31.2c15.4,7.4,34.4,5.5,37.1-2.3c-6.6,3.1-19.6,5-32.5-5.2
		c-12.9-10.1-26.9-26.4-33.9-33.4s-24.4-16.4-35-11.4c-7.4,8.6-16.8,13.5-12.8,26.5C304.4,118,303.3,126,309.1,131.8z"/>
</g>
<path d="M506.2,193.6h7.4v73.3h-7.4L506.2,193.6L506.2,193.6z"/>
<path d="M529.1,212.6h7v9.7c2.8-3.7,5.9-6.5,9.3-8.3c3.4-1.8,7.1-2.8,11.1-2.8c4.1,0,7.7,1,10.8,3.1s5.5,4.8,7,8.3s2.2,8.9,2.2,16.3
	v27.9h-7v-25.9c0-6.3-0.3-10.4-0.8-12.5c-0.8-3.6-2.4-6.3-4.7-8.1s-5.3-2.7-9-2.7c-4.2,0-8,1.4-11.3,4.2s-5.5,6.3-6.6,10.4
	c-0.7,2.7-1,7.6-1,14.8v19.9h-7V212.6z"/>
<path d="M597.6,192.6h7v20h11v6h-11v48.3h-7v-48.3h-9.5v-6h9.5V192.6z"/>
<path d="M671.6,248.8l5.9,3.1c-1.9,3.8-4.2,6.8-6.7,9.2c-2.5,2.3-5.4,4.1-8.5,5.3c-3.2,1.2-6.7,1.8-10.7,1.8
	c-8.9,0-15.8-2.9-20.8-8.7c-5-5.8-7.5-12.3-7.5-19.7c0-6.9,2.1-13,6.3-18.4c5.4-6.8,12.5-10.3,21.5-10.3c9.2,0,16.6,3.5,22.2,10.5
	c3.9,4.9,5.9,11.1,6,18.5h-48.9c0.1,6.3,2.2,11.5,6.1,15.6c3.9,4,8.7,6.1,14.5,6.1c2.8,0,5.5-0.5,8.1-1.4c2.6-1,4.8-2.2,6.7-3.8
	C667.5,255,669.5,252.4,671.6,248.8z M671.6,234.2c-0.9-3.7-2.3-6.7-4.1-8.9s-4.1-4-7.1-5.4c-2.9-1.4-6-2-9.3-2
	c-5.3,0-9.9,1.7-13.8,5.1c-2.8,2.5-4.9,6.2-6.4,11.2L671.6,234.2L671.6,234.2z"/>
<path d="M689.6,212.6h7v7.9c2.1-3.1,4.4-5.4,6.8-7c2.4-1.5,4.8-2.3,7.4-2.3c1.9,0,4,0.6,6.2,1.8l-3.6,5.9c-1.5-0.6-2.7-0.9-3.7-0.9
	c-2.3,0-4.6,1-6.8,2.9s-3.8,4.9-5,8.9c-0.9,3.1-1.3,9.3-1.3,18.8V267h-7L689.6,212.6L689.6,212.6z"/>
<path d="M746.7,193.6h8l24.3,56.7l24.7-56.7h8l-31.9,73.3h-1.6L746.7,193.6z"/>
<path d="M864.5,212.6v54.3h-7v-9.3c-2.9,3.6-6.2,6.2-9.8,8s-7.6,2.7-11.9,2.7c-7.6,0-14.2-2.8-19.6-8.3c-5.4-5.6-8.1-12.3-8.1-20.3
	c0-7.8,2.7-14.5,8.2-20s12-8.3,19.7-8.3c4.4,0,8.4,0.9,12,2.8c3.6,1.9,6.7,4.7,9.5,8.5v-10h7V212.6z M836.6,218
	c-3.9,0-7.4,1-10.7,2.9s-5.9,4.6-7.8,8c-1.9,3.5-2.9,7.1-2.9,11c0,3.8,1,7.5,2.9,11s4.6,6.2,7.8,8.1c3.3,1.9,6.8,2.9,10.5,2.9
	c3.8,0,7.4-1,10.8-2.9c3.4-1.9,6-4.5,7.8-7.8s2.7-7,2.7-11.1c0-6.3-2.1-11.5-6.2-15.7C847.6,220.1,842.6,218,836.6,218z"/>
<path d="M877.5,212.6h7v7.9c2.1-3.1,4.4-5.4,6.8-7c2.4-1.5,4.8-2.3,7.4-2.3c1.9,0,4,0.6,6.2,1.8l-3.6,5.9c-1.5-0.6-2.7-0.9-3.7-0.9
	c-2.3,0-4.6,1-6.8,2.9s-3.8,4.9-5,8.9c-0.9,3.1-1.3,9.3-1.3,18.8V267h-7L877.5,212.6L877.5,212.6z"/>
<path d="M938.2,218.3l-4.5,4.6c-3.7-3.6-7.4-5.4-11-5.4c-2.3,0-4.2,0.8-5.8,2.2c-1.6,1.5-2.4,3.2-2.4,5.3c0,1.8,0.7,3.5,2,5.1
	s4.1,3.6,8.4,5.8c5.2,2.7,8.7,5.3,10.6,7.8c1.8,2.5,2.8,5.4,2.8,8.5c0,4.5-1.6,8.2-4.7,11.3c-3.1,3.1-7,4.6-11.7,4.6
	c-3.1,0-6.1-0.7-9-2s-5.2-3.2-7.1-5.6l4.4-5c3.6,4,7.4,6,11.4,6c2.8,0,5.2-0.9,7.2-2.7c2-1.8,3-3.9,3-6.4c0-2-0.7-3.8-1.9-5.4
	c-1.3-1.5-4.2-3.5-8.8-5.8c-4.9-2.5-8.2-5-10-7.5c-1.8-2.4-2.6-5.2-2.6-8.4c0-4.1,1.4-7.5,4.2-10.2s6.4-4.1,10.7-4.1
	C928.1,211.2,933.1,213.6,938.2,218.3z"/>
<path d="M952.9,190.3c1.6,0,3,0.6,4.1,1.7s1.7,2.5,1.7,4.1s-0.6,2.9-1.7,4c-1.1,1.1-2.5,1.7-4.1,1.7s-2.9-0.6-4-1.7
	c-1.1-1.1-1.7-2.5-1.7-4c0-1.6,0.6-3,1.7-4.1C950,190.9,951.3,190.3,952.9,190.3z M949.4,212.6h7v54.3h-7V212.6z"/>
<path d="M977.1,192.6h7v20h11v6h-11v48.3h-7v-48.3h-9.5v-6h9.5V192.6z"/>
<path d="M999.7,212.6h7.2l18.7,41.6l18.2-41.6h7.4l-32.4,74.1h-7.4l10.7-24.4L999.7,212.6z"/>
<g>
	<path d="M1521.2,193.6l34.1,73.3h-7.8l-11.4-24h-31.8l-11.3,24h-8.2l34.6-73.3L1521.2,193.6L1521.2,193.6z M1520.4,208.9
		l-12.7,26.8h25.2L1520.4,208.9z"/>
	<path d="M1592.9,218.3l-4.5,4.6c-3.7-3.6-7.4-5.4-11-5.4c-2.3,0-4.2,0.8-5.8,2.2c-1.6,1.5-2.4,3.2-2.4,5.3c0,1.8,0.7,3.5,2,5.1
		s4.1,3.6,8.4,5.8c5.2,2.7,8.7,5.3,10.6,7.8c1.8,2.5,2.8,5.4,2.8,8.5c0,4.5-1.6,8.2-4.7,11.3s-7,4.6-11.7,4.6c-3.1,0-6.1-0.7-9-2
		s-5.2-3.2-7.1-5.6l4.4-5c3.6,4,7.4,6,11.4,6c2.8,0,5.2-0.9,7.2-2.7c2-1.8,3-3.9,3-6.4c0-2-0.7-3.8-1.9-5.4
		c-1.3-1.5-4.2-3.5-8.8-5.8c-4.9-2.5-8.2-5-10-7.5c-1.8-2.4-2.6-5.2-2.6-8.4c0-4.1,1.4-7.5,4.2-10.2c2.8-2.7,6.4-4.1,10.7-4.1
		C1582.8,211.2,1587.8,213.6,1592.9,218.3z"/>
	<path d="M1632.5,218.3l-4.5,4.6c-3.7-3.6-7.4-5.4-11-5.4c-2.3,0-4.2,0.8-5.8,2.2c-1.6,1.5-2.4,3.2-2.4,5.3c0,1.8,0.7,3.5,2,5.1
		s4.1,3.6,8.4,5.8c5.2,2.7,8.7,5.3,10.6,7.8c1.8,2.5,2.8,5.4,2.8,8.5c0,4.5-1.6,8.2-4.7,11.3s-7,4.6-11.7,4.6c-3.1,0-6.1-0.7-9-2
		s-5.2-3.2-7.1-5.6l4.4-5c3.6,4,7.4,6,11.4,6c2.8,0,5.2-0.9,7.2-2.7c2-1.8,3-3.9,3-6.4c0-2-0.7-3.8-1.9-5.4
		c-1.3-1.5-4.2-3.5-8.8-5.8c-4.9-2.5-8.2-5-10-7.5c-1.8-2.4-2.6-5.2-2.6-8.4c0-4.1,1.4-7.5,4.2-10.2c2.8-2.7,6.4-4.1,10.7-4.1
		C1622.4,211.2,1627.4,213.6,1632.5,218.3z"/>
	<path d="M1670.4,211.2c8.3,0,15.3,3,20.7,9.1c5,5.5,7.5,12,7.5,19.6s-2.6,14.2-7.9,19.9s-12,8.5-20.3,8.5s-15.1-2.8-20.4-8.5
		c-5.3-5.7-7.9-12.3-7.9-19.9c0-7.5,2.5-14,7.5-19.5C1655,214.3,1662,211.2,1670.4,211.2z M1670.3,218.1c-5.8,0-10.7,2.1-14.9,6.4
		c-4.2,4.3-6.2,9.5-6.2,15.5c0,3.9,0.9,7.6,2.8,10.9c1.9,3.4,4.4,6,7.7,7.8s6.8,2.8,10.6,2.8c3.9,0,7.4-0.9,10.6-2.8
		s5.8-4.5,7.7-7.8c1.9-3.4,2.8-7,2.8-10.9c0-6.1-2.1-11.2-6.3-15.5C1681,220.2,1676.1,218.1,1670.3,218.1z"/>
	<path d="M1764.1,223.7l-5.5,3.4c-4.8-6.3-11.3-9.5-19.6-9.5c-6.6,0-12.1,2.1-16.5,6.4c-4.4,4.3-6.6,9.5-6.6,15.6c0,4,1,7.7,3,11.2
		s4.8,6.2,8.3,8.2c3.5,1.9,7.4,2.9,11.8,2.9c8,0,14.5-3.2,19.5-9.5l5.5,3.6c-2.6,3.9-6.1,6.9-10.5,9s-9.4,3.2-14.9,3.2
		c-8.6,0-15.7-2.7-21.4-8.2c-5.7-5.4-8.5-12.1-8.5-19.9c0-5.2,1.3-10.1,4-14.6c2.6-4.5,6.3-8,10.9-10.5s9.8-3.8,15.5-3.8
		c3.6,0,7.1,0.5,10.4,1.6s6.2,2.5,8.5,4.2C1760.5,218.8,1762.5,221,1764.1,223.7z"/>
	<path d="M1780,190.3c1.6,0,3,0.6,4.1,1.7s1.7,2.5,1.7,4.1s-0.6,2.9-1.7,4s-2.5,1.7-4.1,1.7s-2.9-0.6-4-1.7c-1.1-1.1-1.7-2.5-1.7-4
		c0-1.6,0.6-3,1.7-4.1S1778.4,190.3,1780,190.3z M1776.5,212.6h7v54.3h-7V212.6z"/>
	<path d="M1851.9,212.6v54.3h-7v-9.3c-2.9,3.6-6.2,6.2-9.8,8c-3.6,1.8-7.6,2.7-11.9,2.7c-7.6,0-14.2-2.8-19.6-8.3
		c-5.4-5.6-8.1-12.3-8.1-20.3c0-7.8,2.7-14.5,8.2-20s12-8.3,19.7-8.3c4.4,0,8.4,0.9,12,2.8c3.6,1.9,6.7,4.7,9.5,8.5v-10h7V212.6z
		 M1824,218c-3.9,0-7.4,1-10.7,2.9c-3.3,1.9-5.9,4.6-7.8,8c-1.9,3.5-2.9,7.1-2.9,11c0,3.8,1,7.5,2.9,11s4.6,6.2,7.8,8.1
		c3.3,1.9,6.8,2.9,10.5,2.9c3.8,0,7.4-1,10.8-2.9s6-4.5,7.8-7.8s2.7-7,2.7-11.1c0-6.3-2.1-11.5-6.2-15.7
		C1835,220.1,1830,218,1824,218z"/>
	<path d="M1873.8,192.6h7v20h11v6h-11v48.3h-7v-48.3h-9.5v-6h9.5V192.6z"/>
	<path d="M1904.6,190.3c1.6,0,3,0.6,4.1,1.7s1.7,2.5,1.7,4.1s-0.6,2.9-1.7,4s-2.5,1.7-4.1,1.7s-2.9-0.6-4-1.7
		c-1.1-1.1-1.7-2.5-1.7-4c0-1.6,0.6-3,1.7-4.1S1903.1,190.3,1904.6,190.3z M1901.1,212.6h7v54.3h-7V212.6z"/>
	<path d="M1948.2,211.2c8.3,0,15.3,3,20.7,9.1c5,5.5,7.5,12,7.5,19.6s-2.6,14.2-7.9,19.9s-12,8.5-20.3,8.5s-15.1-2.8-20.4-8.5
		c-5.3-5.7-7.9-12.3-7.9-19.9c0-7.5,2.5-14,7.5-19.5C1932.9,214.3,1939.8,211.2,1948.2,211.2z M1948.2,218.1
		c-5.8,0-10.7,2.1-14.9,6.4c-4.2,4.3-6.2,9.5-6.2,15.5c0,3.9,0.9,7.6,2.8,10.9c1.9,3.4,4.4,6,7.7,7.8s6.8,2.8,10.6,2.8
		c3.9,0,7.4-0.9,10.6-2.8s5.8-4.5,7.7-7.8c1.9-3.4,2.8-7,2.8-10.9c0-6.1-2.1-11.2-6.3-15.5C1958.9,220.2,1953.9,218.1,1948.2,218.1z
		"/>
	<path d="M1989.4,212.6h7v9.7c2.8-3.7,5.9-6.5,9.3-8.3s7.1-2.8,11.1-2.8c4.1,0,7.7,1,10.8,3.1c3.1,2.1,5.5,4.8,7,8.3
		s2.2,8.9,2.2,16.3v27.9h-7v-25.9c0-6.3-0.3-10.4-0.8-12.5c-0.8-3.6-2.4-6.3-4.7-8.1c-2.3-1.8-5.3-2.7-9-2.7c-4.2,0-8,1.4-11.3,4.2
		s-5.5,6.3-6.6,10.4c-0.7,2.7-1,7.6-1,14.8v19.9h-7V212.6z"/>
</g>
<g>
	<path class="st0" d="M1254.8,320.7h4.9v17.8c0,4.3,0.2,7.3,0.7,8.9c0.7,2.3,2.1,4.2,4.1,5.5c2,1.4,4.4,2,7.2,2s5.1-0.7,7.1-2
		c1.9-1.3,3.3-3,4-5.2c0.5-1.5,0.7-4.6,0.7-9.3v-17.8h4.9v18.7c0,5.2-0.6,9.2-1.8,11.8c-1.2,2.7-3.1,4.7-5.6,6.2s-5.6,2.3-9.3,2.3
		s-6.8-0.8-9.3-2.3s-4.4-3.6-5.6-6.3c-1.2-2.7-1.8-6.7-1.8-12.1v-18.2H1254.8z"/>
	<path class="st0" d="M1299,320.7h4.9v6.8c2-2.6,4.1-4.6,6.5-5.9s5-1.9,7.8-1.9s5.4,0.7,7.6,2.2c2.2,1.4,3.8,3.4,4.9,5.8
		c1,2.4,1.6,6.3,1.6,11.4v19.6h-4.9v-18.1c0-4.4-0.2-7.3-0.6-8.8c-0.6-2.5-1.7-4.4-3.3-5.7c-1.6-1.3-3.7-1.9-6.3-1.9
		c-3,0-5.6,1-7.9,2.9c-2.3,2-3.9,4.4-4.6,7.3c-0.5,1.9-0.7,5.3-0.7,10.3v13.9h-4.9L1299,320.7L1299,320.7z"/>
	<path class="st0" d="M1344.5,305c1.2,0,2.2,0.4,3,1.2c0.8,0.8,1.2,1.8,1.2,2.9s-0.4,2.1-1.2,2.8c-0.8,0.8-1.8,1.2-3,1.2
		c-1.1,0-2.1-0.4-2.9-1.2c-0.8-0.8-1.2-1.7-1.2-2.8c0-1.1,0.4-2.1,1.2-2.9C1342.3,305.4,1343.3,305,1344.5,305z M1342,320.7h4.9v38
		h-4.9V320.7z"/>
	<path class="st0" d="M1353.4,320.7h5.1l12.9,27.9l12.9-27.9h5.1l-17.5,38h-0.9L1353.4,320.7z"/>
	<path class="st0" d="M1428.7,346l4.1,2.2c-1.4,2.7-2.9,4.8-4.7,6.4c-1.8,1.6-3.8,2.9-6,3.7c-2.2,0.9-4.7,1.3-7.5,1.3
		c-6.2,0-11.1-2-14.6-6.1s-5.2-8.7-5.2-13.8c0-4.8,1.5-9.1,4.4-12.9c3.8-4.8,8.8-7.2,15.1-7.2c6.5,0,11.7,2.5,15.5,7.4
		c2.8,3.5,4.2,7.8,4.2,13h-34.2c0.1,4.4,1.5,8.1,4.2,10.9s6.1,4.2,10.1,4.2c1.9,0,3.8-0.3,5.7-1c1.8-0.7,3.4-1.6,4.7-2.7
		C1425.8,350.3,1427.2,348.5,1428.7,346z M1428.6,335.8c-0.7-2.6-1.6-4.7-2.9-6.3s-2.9-2.8-5-3.8s-4.2-1.4-6.5-1.4
		c-3.7,0-7,1.2-9.6,3.6c-2,1.8-3.4,4.4-4.5,7.9L1428.6,335.8L1428.6,335.8z"/>
	<path class="st0" d="M1441.3,320.7h4.9v5.6c1.5-2.2,3.1-3.8,4.7-4.9c1.7-1.1,3.4-1.6,5.2-1.6c1.4,0,2.8,0.4,4.3,1.3l-2.5,4.1
		c-1-0.4-1.9-0.7-2.6-0.7c-1.6,0-3.2,0.7-4.7,2s-2.7,3.4-3.5,6.2c-0.6,2.2-0.9,6.5-0.9,13.1v12.9h-4.9V320.7z"/>
	<path class="st0" d="M1483.8,324.7l-3.1,3.2c-2.6-2.5-5.2-3.8-7.7-3.8c-1.6,0-3,0.5-4.1,1.6s-1.7,2.3-1.7,3.7
		c0,1.2,0.5,2.4,1.4,3.6s2.9,2.5,5.9,4.1c3.6,1.9,6.1,3.7,7.4,5.5s1.9,3.8,1.9,6c0,3.1-1.1,5.8-3.3,7.9c-2.2,2.2-4.9,3.2-8.2,3.2
		c-2.2,0-4.3-0.5-6.3-1.4s-3.6-2.2-5-3.9l3.1-3.5c2.5,2.8,5.2,4.2,8,4.2c2,0,3.6-0.6,5-1.9s2.1-2.8,2.1-4.5c0-1.4-0.5-2.7-1.4-3.8
		c-0.9-1.1-3-2.4-6.2-4.1c-3.4-1.8-5.8-3.5-7-5.2s-1.9-3.7-1.9-5.9c0-2.9,1-5.3,3-7.2c2-1.9,4.5-2.9,7.5-2.9
		C1476.7,319.7,1480.3,321.3,1483.8,324.7z"/>
	<path class="st0" d="M1494.3,305c1.2,0,2.2,0.4,3,1.2c0.8,0.8,1.2,1.8,1.2,2.9s-0.4,2.1-1.2,2.8c-0.8,0.8-1.8,1.2-3,1.2
		c-1.1,0-2.1-0.4-2.9-1.2c-0.8-0.8-1.2-1.7-1.2-2.8c0-1.1,0.4-2.1,1.2-2.9C1492.1,305.4,1493.1,305,1494.3,305z M1491.8,320.7h4.9
		v38h-4.9V320.7z"/>
	<path class="st0" d="M1511,306.5h4.9v14.1h7.8v4.2h-7.8v33.8h-4.9v-33.8h-6.6v-4.2h6.6V306.5z"/>
	<path class="st0" d="M1526.9,320.7h5l13.2,29.3l12.8-29.3h5l-22.8,51.9h-5l7.4-16.9L1526.9,320.7z"/>
</g>
<g>
	<path class="st0" d="M1979.9,351c1.2,0,2.2,0.4,3.1,1.3c0.8,0.8,1.3,1.9,1.3,3.1s-0.4,2.2-1.3,3c-0.8,0.8-1.9,1.3-3.1,1.3
		s-2.2-0.4-3.1-1.3c-0.8-0.8-1.3-1.9-1.3-3c0-1.2,0.4-2.2,1.3-3.1C1977.7,351.5,1978.7,351,1979.9,351z"/>
	<path class="st0" d="M2031.2,328.4l-3.9,2.4c-3.3-4.4-7.9-6.6-13.7-6.6c-4.6,0-8.4,1.5-11.5,4.5s-4.6,6.6-4.6,10.9
		c0,2.8,0.7,5.4,2.1,7.9s3.3,4.4,5.8,5.7c2.4,1.4,5.2,2,8.2,2c5.6,0,10.1-2.2,13.6-6.6l3.9,2.5c-1.8,2.7-4.3,4.8-7.3,6.3
		c-3.1,1.5-6.5,2.2-10.4,2.2c-6,0-11-1.9-14.9-5.7c-4-3.8-5.9-8.5-5.9-14c0-3.7,0.9-7.1,2.8-10.3c1.8-3.2,4.4-5.6,7.6-7.4
		s6.9-2.7,10.9-2.7c2.5,0,4.9,0.4,7.3,1.1c2.3,0.8,4.3,1.7,5.9,3C2028.6,325,2030,326.5,2031.2,328.4z"/>
	<path class="st0" d="M2058.7,319.7c5.9,0,10.7,2.1,14.5,6.4c3.5,3.9,5.2,8.5,5.2,13.7c0,5.3-1.8,10-5.5,13.9c-3.7,4-8.4,6-14.3,6
		c-5.8,0-10.6-2-14.3-6c-3.7-4-5.5-8.6-5.5-13.9s1.7-9.8,5.2-13.7C2047.9,321.8,2052.8,319.7,2058.7,319.7z M2058.6,324.4
		c-4.1,0-7.5,1.5-10.4,4.5c-2.9,3-4.4,6.7-4.4,11c0,2.8,0.7,5.3,2,7.7c1.3,2.4,3.1,4.2,5.4,5.5s4.7,2,7.4,2s5.2-0.7,7.4-2
		c2.3-1.3,4.1-3.1,5.4-5.5c1.3-2.4,2-5,2-7.7c0-4.3-1.5-7.9-4.4-11C2066.1,325.9,2062.7,324.4,2058.6,324.4z"/>
	<path class="st0" d="M2087.3,320.7h4.9v6.6c1.7-2.4,3.4-4.2,5.2-5.3c2.5-1.5,5.1-2.3,7.8-2.3c1.8,0,3.6,0.4,5.2,1.1
		c1.7,0.7,3,1.7,4,2.9s2,2.9,2.7,5.1c1.6-3,3.6-5.2,6.1-6.8c2.4-1.5,5-2.3,7.8-2.3c2.6,0,4.9,0.7,6.9,2s3.5,3.2,4.5,5.6
		s1.5,5.9,1.5,10.7v20.8h-4.9V338c0-4.1-0.3-6.9-0.9-8.4c-0.6-1.5-1.6-2.8-3-3.7c-1.4-0.9-3.1-1.4-5-1.4c-2.4,0-4.5,0.7-6.5,2.1
		s-3.4,3.3-4.3,5.6c-0.9,2.3-1.4,6.2-1.4,11.7v14.9h-4.9v-19.5c0-4.6-0.3-7.7-0.9-9.3s-1.6-3-3-3.9c-1.4-1-3.1-1.5-5.1-1.5
		c-2.3,0-4.4,0.7-6.3,2c-2,1.4-3.4,3.2-4.4,5.5c-0.9,2.3-1.4,5.8-1.4,10.6v16.1h-4.9v-38.1H2087.3z"/>
</g>
<g>
	<path class="st0" d="M1678.4,245.3c-0.2,0.7-0.7,1.2-1.2,1.2c-1.6,0-2.1-1.8-7.6-1.8c-3.9,0-8.2,1.1-11.5,3.2
		c-6.6,4.3-14.9,12.6-21.3,21.8c-31.8,45.6-47.9,80.1-47.9,90.6c0,4.1,1.6,6.9,5.7,6.9c12.8,0,23.6-17.9,30-30.9
		c0.5-0.9,2.1-0.7,1.1,0.9c-8.3,17.2-19.9,31.6-31.4,31.6c-6.4,0-9.4-3.7-9.4-9.2c0-5.7,2.3-11.7,6.9-21.1
		c-13.5,16.3-19.4,20.8-23.8,20.8c-3.4,0-4.3-2-4.3-4.8c0-2.1,1.2-5.9,3.4-9.2c8.7-14.2,18.8-23.4,34.6-26.3
		c11.4-19.9,21.1-34.8,33.4-50.1c10.1-12.6,20.2-22.9,30.7-27.9c3.7-1.8,7.3-2.8,10.5-2.8c2.8,0,4.8,0.9,4.8,2
		C1680.9,241.6,1678.9,242.8,1678.4,245.3z M1583.2,330.2c-8.9,11-12.4,19.4-12.4,23.1c0,1.1,1.2,1.6,1.8,1.6
		c3.4,0,19-15.3,27.5-33.2C1591.2,321.8,1587,325.4,1583.2,330.2z"/>
	<path class="st0" d="M1640.2,362.1c-4.8,0-6.4-2.7-6.4-6.2c0-3.2,2.1-9.2,6-15.6c-6.2,8.2-16.9,19-23.6,19c-2.7,0-3.7-1.1-3.7-3.7
		c0-10.8,18.6-36.4,38.5-36.4c1.2-2.3,2.1-3.2,3-3.6l5-1.4l0.4,0.2c-1.1,1.2-2.1,3-3.4,5c1.2,0,4.3,0.4,5.3,0.5
		c1.2,0.5,1.1,1.4,0.4,1.4c-1.4-0.4-5-0.7-6.4-0.7c-10.8,19.2-15.8,29.8-15.8,35.3c0,2.1,0.9,3.7,4.1,3.7c7.5,0,21.7-11.9,33.2-26.3
		c0.5-0.7,1.1-0.2,1.1,0.5C1667,347.4,1651.1,362.1,1640.2,362.1z M1650.2,320.4c-16,0-30.7,26.8-30.7,34.1c0,1.1,0.4,1.4,1.1,1.4
		c2.7,0,13-8,19.5-17.8c3.7-5.7,7.5-12.6,10.3-17.6L1650.2,320.4z"/>
	<path class="st0" d="M1688,360.5c-2.8,0-5.7-0.5-5.7-3.7c0-6.7,10.8-21.1,15.1-31.2c0.5-1.2,0-2.3-1.1-1.6
		c-5.1,3.4-15.1,12.1-19.5,17.2c-3.7,5.9-5.9,10.3-9.9,16.5c-0.4,0.5-0.7,1.1-1.1,1.1c-1.2,0-2.1-3.7-2.1-4.4c0-2.1,3.6-6,7.1-10.5
		c3.7-7.6,8.2-16.7,11-23.3c0.4-0.5,1.1-0.9,1.6-0.9c1.4,0,2.8,1.4,2.8,2.8c0,0.9-4.4,7.3-7.6,14.6c8.9-8,22.5-19.2,25.2-19.2
		c0.9,0,2,1.4,2,2.3c0,0.7-0.4,1.2-0.9,2.1c-5.3,7.6-16.3,25.6-16.3,32.1c0,2.8,1.1,3.7,3.7,3.7c7.8,0,23.6-13.5,30.2-24
		c0.5-0.7,2-0.4,0.9,1.1C1714.8,347.2,1700.2,360.5,1688,360.5z"/>
	<path class="st0" d="M1733.1,357.3c-3.6,1.4-6.4,2-9.1,2c-6.2,0-9.8-2.7-9.8-8.2c0-2,0.4-4.1,1.4-6.7c4.4-11,13.3-20.2,22.7-24.3
		c1.2-0.5,2.5-0.9,3.6-0.9c4.3,0,6.6,2,6.6,5.1c0,1.6-0.4,3-1.2,4.1c-0.7,0.7-2,1.8-3.6,3l-0.5-0.2c0.4-0.9,0.5-2,0.5-3
		c0-2.3-1.8-5-5.5-5c-8.9,0-17.2,12.8-17.2,26.1c0,5,3,7.5,7.1,7.5c6.6,0,18.8-7.6,31.4-23.3c1.2-1.2,2-0.2,0.9,0.9
		C1753.2,343.3,1742.1,353.8,1733.1,357.3z"/>
	<path class="st0" d="M1760.3,359.5c-5.3,0-8.3-2.3-8.3-7.5c0-13.1,15.4-32.8,27.5-32.8c3.2,0,4.4,1.4,4.4,3.2
		c0,5.5-6.9,14.6-21.8,14.6c-1.2,2.1-3,7.3-3,12.1c0,4.6,2,7.3,6.6,7.3c11,0,24-11.7,30.2-19.7c0.4-0.5,1.2-0.2,1.2,0.5
		C1789,347.2,1773.7,359.5,1760.3,359.5z M1776.1,320.9c-4.8,0-10.3,8.2-13.3,14.2c0.5,0.2,2,0.4,2.7,0.4c6.7,0,13-5.7,13-12.3
		C1778.4,322,1777.5,320.9,1776.1,320.9z"/>
	<path class="st0" d="M1813.5,325.9c-0.7-1.6-2.1-2.3-4.4-2.3c-3.4,0-7.5,2-7.5,5.7c0,2,1.2,3.6,3.4,6.6c2,2.8,3.9,5.7,3.9,8.7
		c0,12.3-13.3,15.3-17.9,15.3c-7.3,0-11.2-2.5-11.9-7.3c1.1-0.7,3-2,3.7-2.8c0.5,0,0.4,0.2,0.5,0.7c1.2,4.3,4.8,7.8,9.2,7.8
		c3.7,0,11.2-0.9,11.2-9.1c0-3-1.4-5.7-2.8-7.8c-1.4-2.3-3.2-4.6-3.2-7.5c0-5.7,8.9-14,15.8-14c2,0,2.8,0.4,2.8,1.8
		c-0.7,1.1-1.6,2.8-2,4.1C1814.1,326.3,1813.7,326.3,1813.5,325.9z"/>
	<path class="st0" d="M1829.9,356.5c-5.5,1.2-9.1,1.8-13.1,2.5c-6.7,11.5-13,23.3-19,34.4c-9.1,16.7-15.6,31.4-24.1,46
		c-3.4,5.7-11.2,5.5-23.1,9.6c-1.4,0.7-1.8-0.9-0.4-1.4c12.4-4.8,16-8.2,23.8-21c8-13.1,24.1-40.5,40.1-67.7c-0.9-0.4-1.1-1.1-1.1-2
		c0-1.4,2.1-1.4,3-1.6l8.2-13.3c7.5-12.3,15.1-26.6,23.1-36.9c0.5-0.5,1.2-0.9,2-1.1c1.1-0.4,6-1.1,6.6-1.1c0.4,0,0.5,0.2,0.5,0.4
		c0,0.4-0.4,0.9-0.7,1.2c-9.8,9.2-15.1,15.8-21.1,25c4.6-5.1,11.7-12.1,16.3-12.1c2.3,0,4.1,1.2,4.1,4.6c0,4.8-7.5,21.3-31.4,32.7
		c13-1.4,32.7-5.1,47.9-25.2c0.2-0.5,1.1-0.4,1.1,0.7C1860,346.2,1845.3,352.9,1829.9,356.5z M1845.5,322.9
		c-2.3,0-9.8,5.3-15.3,13.3c-3.9,5.7-7.8,12.4-11.5,19.2c15.4-4.3,28.9-21.8,28.9-29.7C1847.6,324.8,1847.6,322.9,1845.5,322.9z"/>
	<path class="st0" d="M1901.8,338.7c-4.1,0-8.3-2.1-10.7-6c-3.2,7.8-10.8,20.4-20.8,25.4c-2,0.9-3.9,1.4-5.3,1.4
		c-4.1,0-6.4-1.8-6.4-5.7c0-8.3,7.1-18.8,11.7-23.8c5-5.3,11.5-9.6,18.8-10.3c0.4-2,1.2-5.1,3.6-5.5c1.1-0.2,2.5-0.4,3.4-0.9
		c0.7-0.5,1.8,0,1.2,0.9c-1.6,2.7-2.5,6.9-2.5,11.5c0,6.6,2.3,11.4,8.3,11.4c6.2,0,11.2-4.8,14.6-9.6c0.5-1.1,2.1-0.4,1.2,0.5
		C1914.9,333.5,1909,338.7,1901.8,338.7z M1889,321.5c0-0.5,0-0.9-0.7-0.9c-5.1,0-11.7,7.8-16.5,15.8c-3,5.1-6,11.5-5.9,17
		c0,1.6,0.4,3.4,2.5,3.4c8,0,20.4-20.8,21.3-27.5C1889.2,327.2,1889,324.1,1889,321.5z"/>
	<path class="st0" d="M1940.3,327.7c-0.2,0.4-0.5,0.5-0.7,0.5c-0.7,0-1.2-3.4-6.2-3.4c-3,0-7.3,2.7-10.1,5.1
		c-8.9,7.8-13.3,17.9-19.9,28.4c-0.2,0.4-0.7,0.5-1.1,0.5c-0.5,0-2.7-2-2.7-2.7c0-0.9,0.5-2,1.2-3.2c7.6-13.3,16.3-28.1,18.5-32.1
		c0.5-1.1,0.9-1.6,1.2-1.6s3.2,1.2,3.2,3.4c0,1.4-3.9,7.1-4.6,8.7c-0.7,1.2,0,1.1,0.7,0.4c4.6-4.8,14.6-12.3,20.2-12.3
		c2.1,0,3.9,1.2,3.9,2.5C1942.6,323.6,1940.8,326.4,1940.3,327.7z"/>
	<path class="st0" d="M1974.9,297.1c-5.3,7.5-10.7,16-15.3,24.3h22c0.7,0.4,0.7,1.1,0.2,1.2c-3.9,0-16.3,0.5-23.6,1.1
		c-6.6,11.7-10.3,19.9-10.3,25.9c0,4.1,2.1,6.4,5.9,6.4c3.7,0,8.9-2.1,14.2-5.5c0.7-0.7,2,0.5,0.7,1.1c-8,5.1-14.6,7.5-21.7,7.5
		c-3.7,0-7.1-2-7.1-7.5c0-4.8,4.4-14,12.6-27.5c-2.8,0.2-8.2,0.7-8.9,0.7s-0.9-0.2-0.9-0.7c0.5-0.9,1.4-1.8,2.3-2.5l9.1-0.2
		c4.3-7.3,10.7-17.8,15.1-24.7c2.7-1.2,8-3.4,11.5-4.6c0.5,0,0.9,0.9,0,1.2C1979,293.9,1976.2,295.4,1974.9,297.1z"/>
</g>
<g>
	<path class="st1" d="M1069.1,264.2c4.3-4.9,8.4-11,10.4-14.9c5.8-10.3,45-78,51.8-93.6c0-1-1.3-1.3-2-1.3c-10.7,0-21.1,3.1-32,3.3
		c-3,0-4.6-1-4.6-4.1c0-0.8,0.3-3.6,1.3-3.6c0.5,0,6.1,3.1,10.9,3.1c6.1,0,17.5-0.8,24.6-1.3c8.4-0.3,16.5-0.8,24.9-0.8
		c26.2,0,54.9,4.9,54.9,35.9c0,28.7-22.6,60-48.3,71.6c-13,5.6-26.9,8.2-40.9,8.2c-11.4,0-21.8-1-32-6.4c-1.5-0.8-2.8-1.3-4.3-1.3
		c-2.8,0-8.6,2.8-13.2,6.4L1069.1,264.2z M1152.4,153.7c-3.6,0-6.1-0.3-8.1,3.1c-16.8,26.4-39.4,67.2-51.8,92.6c-0.5,1-1,2.3-1,3.1
		c0,1,0.5,2.1,1.5,3.1c5.8,6.2,16.8,9.2,27.2,9.2c41.1,0,75.9-34.6,75.9-79.3C1196.1,170.3,1187.4,153.7,1152.4,153.7z"/>
	<path class="st1" d="M1239.2,270.4c-6.9,0-9.1-3.8-9.1-9c0-4.6,3-13.3,8.6-22.6c-8.9,11.8-24.1,27.4-33.8,27.4
		c-3.8,0-5.3-1.5-5.3-5.4c0-15.6,26.7-52.6,55.1-52.6c1.8-3.3,3-4.6,4.3-5.1l7.1-2.1l0.5,0.3c-1.5,1.8-3,4.4-4.8,7.2
		c1.8,0,6.1,0.5,7.6,0.8c1.8,0.8,1.5,2.1,0.5,2.1c-2-0.5-7.1-1-9.1-1c-15.5,27.7-22.6,43.1-22.6,51.1c0,3.1,1.3,5.4,5.8,5.4
		c10.7,0,31-17.2,47.5-38c0.8-1,1.5-0.3,1.5,0.8C1277.6,249.1,1254.7,270.4,1239.2,270.4z M1253.5,210.1
		c-22.9,0-43.9,38.7-43.9,49.3c0,1.5,0.5,2.1,1.5,2.1c3.8,0,18.5-11.5,27.9-25.7c5.3-8.2,10.7-18.2,14.7-25.4L1253.5,210.1z"/>
	<path class="st1" d="M1307.6,268.1c-4.1,0-8.1-0.8-8.1-5.4c0-9.7,15.5-30.5,21.6-45.2c0.8-1.8,0-3.3-1.5-2.3
		c-7.4,4.9-21.6,17.4-27.9,24.9c-5.3,8.5-8.4,14.9-14.2,23.9c-0.5,0.8-1,1.5-1.5,1.5c-1.8,0-3-5.4-3-6.4c0-3.1,5.1-8.7,10.2-15.1
		c5.3-11,11.7-24.1,15.7-33.6c0.5-0.8,1.5-1.3,2.3-1.3c2,0,4.1,2.1,4.1,4.1c0,1.3-6.3,10.5-10.9,21c12.7-11.5,32.3-27.7,36.1-27.7
		c1.3,0,2.8,2.1,2.8,3.3c0,1-0.5,1.8-1.3,3.1c-7.6,11-23.4,36.9-23.4,46.4c0,4.1,1.5,5.4,5.3,5.4c11.2,0,33.8-19.5,43.2-34.6
		c0.8-1,2.8-0.5,1.3,1.5C1345.9,248.8,1325.1,268.1,1307.6,268.1z"/>
	<path class="st1" d="M1372.1,263.5c-5.1,2.1-9.1,2.8-13,2.8c-8.9,0-14-3.8-14-11.8c0-2.8,0.5-5.9,2-9.7c6.4-15.9,19-29.2,32.5-35.1
		c1.8-0.8,3.6-1.3,5.1-1.3c6.1,0,9.4,2.8,9.4,7.4c0,2.3-0.5,4.4-1.8,5.9c-1,1-2.8,2.6-5.1,4.4l-0.8-0.3c0.5-1.3,0.8-2.8,0.8-4.4
		c0-3.3-2.5-7.2-7.9-7.2c-12.7,0-24.6,18.5-24.6,37.7c0,7.2,4.3,10.8,10.2,10.8c9.4,0,26.9-11,45-33.6c1.8-1.8,2.8-0.3,1.3,1.3
		C1400.8,243.2,1385,258.3,1372.1,263.5z"/>
	<path class="st1" d="M1410.9,266.5c-7.6,0-11.9-3.3-11.9-10.8c0-19,22.1-47.5,39.4-47.5c4.6,0,6.3,2.1,6.3,4.6c0,8-9.9,21-31.2,21
		c-1.8,3.1-4.3,10.5-4.3,17.4c0,6.7,2.8,10.5,9.4,10.5c15.7,0,34.3-16.9,43.2-28.5c0.5-0.8,1.8-0.3,1.8,0.8
		C1452.1,248.8,1430.2,266.5,1410.9,266.5z M1433.5,210.9c-6.9,0-14.7,11.8-19,20.5c0.8,0.3,2.8,0.5,3.8,0.5
		c9.7,0,18.5-8.2,18.5-17.7C1436.8,212.4,1435.6,210.9,1433.5,210.9z"/>
</g>
</svg>
