<?xml version="1.0" encoding="utf-8"?>
<!-- Generator: Adobe Illustrator 20.0.0, SVG Export Plug-In . SVG Version: 6.00 Build 0)  -->
<svg version="1.1"
	 id="svg2" inkscape:export-filename="C:\Users\Alex\Documents\IVDA1516\IVDA_logo[1]\IVDA_logo[1]noweb_prep_website.png" inkscape:export-xdpi="349.99753" inkscape:export-ydpi="349.99753" inkscape:version="0.48.5 r10040" sodipodi:docname="IVDA_logo[1]noweb_prep_website.svg" xmlns:cc="http://creativecommons.org/ns#" xmlns:dc="http://purl.org/dc/elements/1.1/" xmlns:inkscape="http://www.inkscape.org/namespaces/inkscape" xmlns:rdf="http://www.w3.org/1999/02/22-rdf-syntax-ns#" xmlns:sodipodi="http://sodipodi.sourceforge.net/DTD/sodipodi-0.dtd" xmlns:svg="http://www.w3.org/2000/svg"
	 xmlns="http://www.w3.org/2000/svg" xmlns:xlink="http://www.w3.org/1999/xlink" x="0px" y="0px" viewBox="0 0 121 107.5"
	 style="enable-background:new 0 0 121 107.5;" xml:space="preserve">
<style type="text/css">
	.st0{fill:#0067B1;}
</style>
<sodipodi:namedview  bordercolor="#666666" borderopacity="1" gridtolerance="10" guidetolerance="10" id="namedview3072" inkscape:current-layer="svg2" inkscape:cx="623.95644" inkscape:cy="224.5" inkscape:pageopacity="0" inkscape:pageshadow="2" inkscape:window-height="838" inkscape:window-maximized="1" inkscape:window-width="1600" inkscape:window-x="-8" inkscape:window-y="-8" inkscape:zoom="0.59074074" objecttolerance="10" pagecolor="#ffffff" showgrid="false">
	</sodipodi:namedview>
<g id="g2990">
	<path id="path2992" inkscape:connector-curvature="0" class="st0" d="M10.7,58.1c0,0,5.3-2.6,8.8-4.9c3.6-2.3,5.9-7.4,9.2-12.6
		s9.8-10.1,11.6-9.7c0.7,1.4,0.2,2,0.2,2s-4,2.6-7.5,6.5c-3.4,3.9-5.8,10.3-11.2,14.4S10.7,58.1,10.7,58.1z"/>
	<path id="path2994" inkscape:connector-curvature="0" class="st0" d="M50.7,26.9c0,0,2.1-0.7,2.6-1.8c0-2.3,0.8-5.2,0.8-6.3
		c0-1-1.4-2.3-1-3.7c0.5-1.3,1.2-2.8,0.2-3.4s-2.7-0.3-2.7-0.3s-0.7,1.5,0.3,2.6c-0.5,1.5-1,2.7-0.5,3.3c0.6,0.6,1,1,0.7,3.9
		C50.8,23.9,50.7,26.9,50.7,26.9z"/>
	<path id="path2996" inkscape:connector-curvature="0" class="st0" d="M56.7,31.7c-0.2,0.1-2.9,0.4-2.4-1.8c2.5-1.5,5.7-4.2,9-9.2
		s6-11.2,11.6-14.8C80.3,2.3,85.7,0,85.7,0l-0.9,1.7c0,0-3.7,1.2-7,3.7c-3.3,2.6-5.5,6.6-8.3,11C66.6,20.8,64.1,27.2,56.7,31.7z"/>
	<path id="path2998" inkscape:connector-curvature="0" class="st0" d="M53.4,34.3c-0.5-3.3-2.8-4.5-4.3-4.5s-4.7,0.8-7.5,6.6
		s-4.5,12.5-4.2,18.3s0.5,6.4,0.5,6.4s-5.1,7.8-9.5,13.6C24,80.4,5.1,101.8,4.3,105.4l3.4-2.5c0,0,8.3-9.4,13.4-15.6
		c5.2-6.2,9-10.1,13.6-16.3c3.3-4,4-4.4,4-4.4s0.2,10-1.1,15.7s-5.2,14.5-8.5,18.7c3.2-2.6,6.3-5.6,6.3-5.6s3.6-3.7,5.6-11
		c2-7.2,2.3-15.4,1.7-20.4c-0.1-1.3-0.3-2.8-0.5-4.2c1.1-1.4,3.2-4.2,5.5-8.1C51.2,45.9,53.9,37.6,53.4,34.3z M41.4,48.8
		c0-4,3.3-14.1,7-14.7c3-0.6,2.6,2.1,1.2,6.9c-1.4,4.3-4.3,10.3-7.7,14.3C41.5,52.9,41.4,50.6,41.4,48.8z"/>
	<path id="path3000" inkscape:connector-curvature="0" class="st0" d="M85.1,5.8c0,0-0.7,2.1-2.5,6.7s-3.9,12-3.1,16.6
		c0.8,4.5,2.3,9.4,2.3,9.4s-0.9,2.2-2.7,0.4c-1.1-4.2-4-11.2-1.8-18s4.9-9.9,4.9-9.9S81.7,6.5,85.1,5.8z"/>
	<path id="path3002" inkscape:connector-curvature="0" class="st0" d="M100.6,79.4c-3.5-2-9.3-5.6-14-12.6c-1.4-2.1-2.7-4.3-3.7-6.5
		c2.2-2.5,3.9-4.8,5.2-7c3-5,4.4-13.8,0.6-14.1c-4-0.3-11.5,6.1-10.4,15.5c0.2,2,0.7,3.9,1.5,5.9l-0.1,0.1
		c-10.3,11.2-20.1,18.7-31,24.2c-2.2,1.1-4.3,1.9-6.1,2.5c-1.8-2.2-2.5-3.4-2.5-3.4s0,0.7-0.3,0.7c0.5,1,1,2,1.6,3
		c-6.7,1.8-10.7,0.7-10.7,0.7c1.3,2,3.5,3.5,11.6,1.7c0.2,0,0.4-0.1,0.6-0.1c4.8,7.3,11.6,13.4,21.9,15.8
		c12.6,2.9,20.8,1.5,30.7-2.4S107,94.3,108,90.5C109.1,84.7,104.1,81.3,100.6,79.4z M81.7,47c3-5,6.8-7.2,7.7-3.6
		c0.8,3.1-1.5,8-7.5,14.8C80.3,54,79.9,50,81.7,47z M105.1,90.1c-1.2,6.3-10,13.2-24.1,14.2s-24.9-2.8-31.9-9.8
		c-1.9-1.9-3.4-3.6-4.7-5c8.1-2.7,19.4-10.7,27-17.7c3.6-3.4,6.6-6.3,9.1-9c3.1,6.5,8.5,12.3,13,15.3C99.9,82.3,106,86.8,105.1,90.1
		z"/>
	<path id="path3004" inkscape:connector-curvature="0" class="st0" d="M92.5,41.5v-0.9c0,0,1.7-1.6,5.5,2.2s4.8,6.8,7.6,13.1
		c2.7,5.8,4.8,7.9,6.1,8.2c1.3,0.3,3.9,1.9,4.5,4.2c-2.9-0.3-9.9-2.6-14.5-12.2C98.2,49.2,98.9,44.8,92.5,41.5z"/>
	<path id="path3006" inkscape:connector-curvature="0" class="st0" d="M111.9,40.6c-5.4-1.4-8.8-3.3-11.8-6.9c-3.9-5.1-7.8-8-7.8-8
		s-1.9-0.5-2-0.5v0.6c4.6,3.9,8,10.7,12.2,12.9s9.6,2.5,9.6,2.5S112.1,40.8,111.9,40.6z"/>
	<path id="path3008" inkscape:connector-curvature="0" class="st0" d="M85.2,36c0,0,0.9,0.1,0.9-1.6c0-1.7,0.5-2.4,1-3.6
		C87.6,29.6,87,27,87,27s2.1-1.7,2.1-2.9c2.5,0.2,5.5,0,9,4c3.4,4,4.3,6.6,8.5,8.6s9.5,1.5,10.2-0.6c-1.8,0.9-5.4,1.4-9-1.4
		c-3.6-2.8-7.4-7.3-9.3-9.2c-1.9-1.9-6.7-4.5-9.6-3.1c-2,2.4-4.6,3.7-3.5,7.3C83.9,32.2,83.6,34.4,85.2,36z"/>
</g>
</svg>
