<svg id="svg2" xmlns="http://www.w3.org/2000/svg" viewBox="0 0 421.9 37.7"><defs><style>.cls-1{fill:#f2f3f3;}.cls-2{fill:#b5121b;}</style></defs><title>ivda_name_only1</title><g id="g3010"><path id="path3012" class="cls-1" d="M8.5,20.2h2V40.4h-2Z" transform="translate(-8.5 -8.1)"/><path id="path3014" class="cls-1" d="M14.8,25.4h1.9v2.7a8,8,0,0,1,2.6-2.3,6.81,6.81,0,0,1,3.1-.8,5.29,5.29,0,0,1,3,.9,4.75,4.75,0,0,1,1.9,2.3,12.79,12.79,0,0,1,.6,4.5v7.7H26V33.3a21.18,21.18,0,0,0-.2-3.4,3.73,3.73,0,0,0-1.3-2.2A3.9,3.9,0,0,0,22,27a4.47,4.47,0,0,0-3.1,1.2,5.52,5.52,0,0,0-1.8,2.9,18.15,18.15,0,0,0-.3,4.1v5.5H14.9C14.8,40.4,14.8,25.4,14.8,25.4Z" transform="translate(-8.5 -8.1)"/><path id="path3016" class="cls-1" d="M33.7,19.9h1.9v5.5h3v1.7h-3V40.4H33.7V27.1H31.1V25.4h2.6Z" transform="translate(-8.5 -8.1)"/><path id="path3018" class="cls-1" d="M54.1,35.4l1.6.9a10.06,10.06,0,0,1-1.8,2.5,11.36,11.36,0,0,1-2.3,1.5,8.81,8.81,0,0,1-2.9.5A6.91,6.91,0,0,1,43,38.4,8,8,0,0,1,40.9,33a8.45,8.45,0,0,1,1.7-5.1,7,7,0,0,1,5.9-2.8A7.49,7.49,0,0,1,54.6,28a8.67,8.67,0,0,1,1.7,5.1H42.8a6,6,0,0,0,1.7,4.3,5.44,5.44,0,0,0,4,1.7,5.38,5.38,0,0,0,2.2-.4,7.68,7.68,0,0,0,1.8-1,17.72,17.72,0,0,0,1.6-2.3Zm0-4A6.35,6.35,0,0,0,53,28.9a5.27,5.27,0,0,0-2-1.5,5.83,5.83,0,0,0-2.6-.6,5.75,5.75,0,0,0-3.8,1.4,6.23,6.23,0,0,0-1.8,3.1l11.3.1Z" transform="translate(-8.5 -8.1)"/><path id="path3020" class="cls-1" d="M59,25.4h1.9v2.2a5.72,5.72,0,0,1,1.9-1.9,3.86,3.86,0,0,1,2-.6,4.06,4.06,0,0,1,1.7.5l-1,1.6a2,2,0,0,0-1-.2,3.15,3.15,0,0,0-1.9.8,5.87,5.87,0,0,0-1.4,2.5,26,26,0,0,0-.4,5.2v5.1H59V25.4Z" transform="translate(-8.5 -8.1)"/><path id="path3022" class="cls-1" d="M74.8,20.2H77l6.7,15.6,6.8-15.6h2.2L83.9,40.4h-.4Z" transform="translate(-8.5 -8.1)"/><path id="path3024" class="cls-1" d="M107.2,25.4v15h-1.9V37.8a8,8,0,0,1-2.7,2.2,7.25,7.25,0,0,1-3.3.7,7.41,7.41,0,0,1-5.4-2.3,7.61,7.61,0,0,1-2.2-5.6A7.26,7.26,0,0,1,94,27.3,7.41,7.41,0,0,1,99.4,25a6.22,6.22,0,0,1,3.3.8,8,8,0,0,1,2.6,2.3V25.3l1.9.1Zm-7.6,1.5a5.74,5.74,0,0,0-2.9.8,5.56,5.56,0,0,0-2.1,2.2,6.74,6.74,0,0,0-.8,3,6.41,6.41,0,0,0,.8,3,5.58,5.58,0,0,0,2.1,2.2,6,6,0,0,0,2.9.8,6.74,6.74,0,0,0,3-.8,4.74,4.74,0,0,0,2.1-2.1,6.17,6.17,0,0,0,.7-3.1,6,6,0,0,0-1.7-4.3,5.66,5.66,0,0,0-4.1-1.7Z" transform="translate(-8.5 -8.1)"/><path id="path3026" class="cls-1" d="M110.8,25.4h1.9v2.2a5.72,5.72,0,0,1,1.9-1.9,3.86,3.86,0,0,1,2-.6,4.06,4.06,0,0,1,1.7.5l-1,1.6a2,2,0,0,0-1-.2,3.15,3.15,0,0,0-1.9.8,5.87,5.87,0,0,0-1.4,2.5,26,26,0,0,0-.4,5.2v5.1h-1.9l.1-15.2Z" transform="translate(-8.5 -8.1)"/><path id="path3028" class="cls-1" d="M127.6,27l-1.2,1.3a4.32,4.32,0,0,0-3-1.5,2.27,2.27,0,0,0-1.6.6,2.13,2.13,0,0,0-.7,1.5,2,2,0,0,0,.6,1.4,8.62,8.62,0,0,0,2.3,1.6,9.39,9.39,0,0,1,2.9,2.1,4.06,4.06,0,0,1-.5,5.4,4.63,4.63,0,0,1-3.2,1.3,5.42,5.42,0,0,1-2.5-.6,7.49,7.49,0,0,1-2-1.5l1.2-1.4a4.27,4.27,0,0,0,3.1,1.7,2.88,2.88,0,0,0,2-.7,2.17,2.17,0,0,0,.8-1.8,2.69,2.69,0,0,0-.5-1.5,9.65,9.65,0,0,0-2.4-1.6,7.49,7.49,0,0,1-2.8-2.1,3.69,3.69,0,0,1-.7-2.3,3.63,3.63,0,0,1,1.2-2.8,4.36,4.36,0,0,1,2.9-1.1,6.31,6.31,0,0,1,4.1,2Z" transform="translate(-8.5 -8.1)"/><path id="path3030" class="cls-1" d="M131.6,19.3a1.72,1.72,0,1,1-1.1.5A1.27,1.27,0,0,1,131.6,19.3Zm-1,6.1h1.9v15h-1.9Z" transform="translate(-8.5 -8.1)"/><path id="path3032" class="cls-1" d="M138.3,19.9h1.9v5.5h3v1.7h-3V40.4h-1.9V27.1h-2.6V25.4h2.6Z" transform="translate(-8.5 -8.1)"/><path id="path3034" class="cls-1" d="M144.5,25.4h2l5.2,11.5,5-11.5h2l-8.9,20.4h-2l2.9-6.7-6.2-13.7Z" transform="translate(-8.5 -8.1)"/></g><g id="g3036"><path id="path3038" class="cls-1" d="M288.2,20.2l9.4,20.2h-2.1l-3.1-6.6h-8.8l-3.1,6.6h-2.3l9.5-20.2Zm-.2,4.2-3.5,7.4h6.9Z" transform="translate(-8.5 -8.1)"/><path id="path3040" class="cls-1" d="M308,27l-1.2,1.3a4.32,4.32,0,0,0-3-1.5,2.27,2.27,0,0,0-1.6.6,2.13,2.13,0,0,0-.7,1.5,2,2,0,0,0,.6,1.4,8.62,8.62,0,0,0,2.3,1.6,9.39,9.39,0,0,1,2.9,2.1,4.06,4.06,0,0,1-.5,5.4,4.22,4.22,0,0,1-3.2,1.3,5.42,5.42,0,0,1-2.5-.6,7.49,7.49,0,0,1-2-1.5l1.2-1.4a4.27,4.27,0,0,0,3.1,1.7,2.88,2.88,0,0,0,2-.7,2.17,2.17,0,0,0,.8-1.8,2.69,2.69,0,0,0-.5-1.5,9.65,9.65,0,0,0-2.4-1.6,7.49,7.49,0,0,1-2.8-2.1,3.69,3.69,0,0,1-.7-2.3,3.63,3.63,0,0,1,1.2-2.8,4.36,4.36,0,0,1,2.9-1.1A6.31,6.31,0,0,1,308,27Z" transform="translate(-8.5 -8.1)"/><path id="path3042" class="cls-1" d="M318.9,27l-1.2,1.3a4.32,4.32,0,0,0-3-1.5,2.27,2.27,0,0,0-1.6.6,2.13,2.13,0,0,0-.7,1.5,2,2,0,0,0,.6,1.4,8.62,8.62,0,0,0,2.3,1.6,9.39,9.39,0,0,1,2.9,2.1,4.06,4.06,0,0,1-.5,5.4,4.22,4.22,0,0,1-3.2,1.3,5.42,5.42,0,0,1-2.5-.6,7.49,7.49,0,0,1-2-1.5l1.2-1.4a4.27,4.27,0,0,0,3.1,1.7,2.88,2.88,0,0,0,2-.7,2.17,2.17,0,0,0,.8-1.8,2.69,2.69,0,0,0-.5-1.5,9.65,9.65,0,0,0-2.4-1.6,7.49,7.49,0,0,1-2.8-2.1,3.69,3.69,0,0,1-.7-2.3,3.63,3.63,0,0,1,1.2-2.8,4.36,4.36,0,0,1,2.9-1.1A6.31,6.31,0,0,1,318.9,27Z" transform="translate(-8.5 -8.1)"/><path id="path3044" class="cls-1" d="M329.3,25a7.23,7.23,0,0,1,5.7,2.5,8,8,0,0,1-.1,10.9,7.18,7.18,0,0,1-5.6,2.3,7.38,7.38,0,0,1-5.6-2.3,8,8,0,0,1-2.2-5.5,7.84,7.84,0,0,1,7.8-7.9Zm0,1.9a5.54,5.54,0,0,0-4.1,1.8,5.73,5.73,0,0,0-1.7,4.3,5.21,5.21,0,0,0,.8,3,4.74,4.74,0,0,0,2.1,2.1,6,6,0,0,0,2.9.8,4.89,4.89,0,0,0,2.9-.8,5.3,5.3,0,0,0,2.1-2.1,6.18,6.18,0,0,0-.9-7.3,5.39,5.39,0,0,0-4.1-1.8Z" transform="translate(-8.5 -8.1)"/><path id="path3046" class="cls-1" d="M355.2,28.5l-1.5.9a6.46,6.46,0,0,0-5.4-2.6,6.11,6.11,0,0,0-4.5,1.8,5.82,5.82,0,0,0-1.8,4.3,6.81,6.81,0,0,0,.8,3.1,6.34,6.34,0,0,0,2.3,2.3,7,7,0,0,0,3.3.8,6.73,6.73,0,0,0,5.4-2.6l1.5,1a7.06,7.06,0,0,1-2.9,2.5,9.15,9.15,0,0,1-4.1.9,7.84,7.84,0,0,1-5.9-2.3,7.11,7.11,0,0,1-2.3-5.5,8,8,0,0,1,1.1-4,7.62,7.62,0,0,1,3-2.9,8.8,8.8,0,0,1,4.3-1,9.25,9.25,0,0,1,2.9.4,7.14,7.14,0,0,1,2.3,1.2,5.16,5.16,0,0,1,1.5,1.7Z" transform="translate(-8.5 -8.1)"/><path id="path3048" class="cls-1" d="M359.6,19.3a1.72,1.72,0,1,1-1.1.5A1.17,1.17,0,0,1,359.6,19.3Zm-1,6.1h1.9v15h-1.9Z" transform="translate(-8.5 -8.1)"/><path id="path3050" class="cls-1" d="M379.4,25.4v15h-1.9V37.8a8,8,0,0,1-2.7,2.2,7.25,7.25,0,0,1-3.3.7,7.41,7.41,0,0,1-5.4-2.3,7.61,7.61,0,0,1-2.2-5.6,7.26,7.26,0,0,1,2.3-5.5,7.41,7.41,0,0,1,5.4-2.3,6.22,6.22,0,0,1,3.3.8,8,8,0,0,1,2.6,2.3V25.3l1.9.1Zm-7.7,1.5a5.74,5.74,0,0,0-2.9.8,5.56,5.56,0,0,0-2.1,2.2,6.74,6.74,0,0,0-.8,3,6.41,6.41,0,0,0,.8,3,5.58,5.58,0,0,0,2.1,2.2,6,6,0,0,0,2.9.8,6.74,6.74,0,0,0,3-.8,4.74,4.74,0,0,0,2.1-2.1,6.17,6.17,0,0,0,.7-3.1,6,6,0,0,0-1.7-4.3,5.66,5.66,0,0,0-4.1-1.7Z" transform="translate(-8.5 -8.1)"/><path id="path3052" class="cls-1" d="M385.4,19.9h1.9v5.5h3v1.7h-3V40.4h-1.9V27.1h-2.6V25.4h2.6Z" transform="translate(-8.5 -8.1)"/><path id="path3054" class="cls-1" d="M393.9,19.3a1.72,1.72,0,1,1-1.1.5A1.27,1.27,0,0,1,393.9,19.3Zm-1,6.1h1.9v15h-1.9Z" transform="translate(-8.5 -8.1)"/><path id="path3056" class="cls-1" d="M405.9,25a7.23,7.23,0,0,1,5.7,2.5,8,8,0,0,1-.1,10.9,7.18,7.18,0,0,1-5.6,2.3,7.38,7.38,0,0,1-5.6-2.3,8,8,0,0,1-2.2-5.5,7.84,7.84,0,0,1,7.8-7.9Zm0,1.9a5.54,5.54,0,0,0-4.1,1.8,5.73,5.73,0,0,0-1.7,4.3,5.21,5.21,0,0,0,.8,3,4.74,4.74,0,0,0,2.1,2.1,6,6,0,0,0,2.9.8,4.89,4.89,0,0,0,2.9-.8,5.3,5.3,0,0,0,2.1-2.1,6.18,6.18,0,0,0-.9-7.3,5.39,5.39,0,0,0-4.1-1.8Z" transform="translate(-8.5 -8.1)"/><path id="path3058" class="cls-1" d="M417.3,25.4h1.9v2.7a8,8,0,0,1,2.6-2.3,6.81,6.81,0,0,1,3.1-.8,5.29,5.29,0,0,1,3,.9,4.75,4.75,0,0,1,1.9,2.3,12.79,12.79,0,0,1,.6,4.5v7.7h-1.9V33.3a21.18,21.18,0,0,0-.2-3.4,3.73,3.73,0,0,0-1.3-2.2,3.9,3.9,0,0,0-2.5-.7,4.47,4.47,0,0,0-3.1,1.2,5.52,5.52,0,0,0-1.8,2.9,18.15,18.15,0,0,0-.3,4.1v5.5h-1.9C417.3,40.4,417.3,25.4,417.3,25.4Z" transform="translate(-8.5 -8.1)"/></g><g id="g3060"><path id="path3062" class="cls-2" d="M163.6,39.6a26.4,26.4,0,0,0,2.9-4.1c1.6-2.8,12.4-21.5,14.3-25.8,0-.3-.4-.4-.6-.4-2.9,0-5.8.9-8.8.9-.8,0-1.3-.3-1.3-1.1,0-.2.1-1,.4-1a8.84,8.84,0,0,0,3,.9c1.7,0,4.8-.2,6.8-.4,2.3-.1,4.5-.2,6.9-.2,7.2,0,15.1,1.4,15.1,9.9,0,7.9-6.2,16.5-13.3,19.7a29.26,29.26,0,0,1-11.3,2.3,17.87,17.87,0,0,1-8.8-1.8,2.84,2.84,0,0,0-1.2-.4,7.52,7.52,0,0,0-3.6,1.8l-.5-.3Zm23-30.4c-1,0-1.7-.1-2.2.9-4.6,7.3-10.9,18.5-14.3,25.5a3.18,3.18,0,0,0-.3.9,1.22,1.22,0,0,0,.4.9c1.6,1.7,4.6,2.5,7.5,2.5,11.3,0,20.9-9.5,20.9-21.9C198.6,13.8,196.2,9.2,186.6,9.2Z" transform="translate(-8.5 -8.1)"/><path id="path3064" class="cls-2" d="M210.5,41.3a2.18,2.18,0,0,1-2.5-2.5,13.62,13.62,0,0,1,2.4-6.2c-2.5,3.3-6.6,7.6-9.3,7.6-1,0-1.5-.4-1.5-1.5,0-4.3,7.4-14.5,15.2-14.5.5-.9.8-1.3,1.2-1.4l2-.6.1.1a23.61,23.61,0,0,0-1.3,2,13.61,13.61,0,0,1,2.1.2c.5.2.4.6.1.6a24.18,24.18,0,0,0-2.5-.3c-4.3,7.6-6.2,11.9-6.2,14.1,0,.9.4,1.5,1.6,1.5,2.9,0,8.5-4.7,13.1-10.5.2-.3.4-.1.4.2-4.3,5.4-10.6,11.2-14.9,11.2Zm4-16.6c-6.3,0-12.1,10.7-12.1,13.6,0,.4.1.6.4.6,1,0,5.1-3.2,7.7-7.1,1.4-2.3,2.9-5,4-7.1Z" transform="translate(-8.5 -8.1)"/><path id="path3066" class="cls-2" d="M229.4,40.7c-1.1,0-2.2-.2-2.2-1.5,0-2.7,4.3-8.4,6-12.5.2-.5,0-.9-.4-.6a49.51,49.51,0,0,0-7.7,6.9c-1.5,2.3-2.3,4.1-3.9,6.6-.1.2-.3.4-.4.4-.5,0-.8-1.5-.8-1.8,0-.9,1.4-2.4,2.8-4.2,1.5-3,3.2-6.6,4.3-9.3a.82.82,0,0,1,.6-.4,1.18,1.18,0,0,1,1.1,1.1c0,.4-1.7,2.9-3,5.8,3.5-3.2,8.9-7.6,9.9-7.6.4,0,.8.6.8.9a1.39,1.39,0,0,1-.4.9c-2.1,3-6.4,10.2-6.4,12.8,0,1.1.4,1.5,1.5,1.5,3.1,0,9.3-5.4,11.9-9.5.2-.3.8-.1.4.4-3.6,4.8-9.3,10.1-14.1,10.1Z" transform="translate(-8.5 -8.1)"/><path id="path3068" class="cls-2" d="M247.1,39.4a8.74,8.74,0,0,1-3.6.8c-2.5,0-3.9-1-3.9-3.3a6,6,0,0,1,.6-2.7,18.27,18.27,0,0,1,9-9.7,4.29,4.29,0,0,1,1.4-.4c1.7,0,2.6.8,2.6,2a2.2,2.2,0,0,1-.5,1.6c-.3.3-.8.7-1.4,1.2l-.2-.1a5,5,0,0,0,.2-1.2,2.05,2.05,0,0,0-2.2-2c-3.5,0-6.8,5.1-6.8,10.4a2.68,2.68,0,0,0,2.8,3c2.6,0,7.4-3,12.4-9.3.5-.5.8-.1.4.4-2.8,3.7-7.2,7.9-10.8,9.3Z" transform="translate(-8.5 -8.1)"/><path id="path3070" class="cls-2" d="M257.8,40.3c-2.1,0-3.3-.9-3.3-3,0-5.2,6.1-13.1,10.9-13.1,1.3,0,1.7.6,1.7,1.3,0,2.2-2.7,5.8-8.6,5.8a11.17,11.17,0,0,0-1.2,4.8c0,1.8.8,2.9,2.6,2.9,4.3,0,9.5-4.7,11.9-7.9.1-.2.5-.1.5.2-3.1,4.1-9.1,9-14.5,9Zm6.3-15.4c-1.9,0-4.1,3.3-5.2,5.6a3.4,3.4,0,0,0,1,.1,5.15,5.15,0,0,0,5.1-4.9A1,1,0,0,0,264.1,24.9Z" transform="translate(-8.5 -8.1)"/></g></svg>