<?xml version="1.0" encoding="UTF-8" standalone="no"?>
<!-- Generator: Adobe Illustrator 19.1.0, SVG Export Plug-In . SVG Version: 6.00 Build 0)  -->

<svg
   xmlns:dc="http://purl.org/dc/elements/1.1/"
   xmlns:cc="http://creativecommons.org/ns#"
   xmlns:rdf="http://www.w3.org/1999/02/22-rdf-syntax-ns#"
   xmlns:svg="http://www.w3.org/2000/svg"
   xmlns="http://www.w3.org/2000/svg"
   xmlns:sodipodi="http://sodipodi.sourceforge.net/DTD/sodipodi-0.dtd"
   xmlns:inkscape="http://www.inkscape.org/namespaces/inkscape"
   version="1.1"
   id="svg2"
   x="0px"
   y="0px"
   viewBox="0 0 1827.9219 223.33242"
   xml:space="preserve"
   inkscape:version="0.48.5 r10040"
   width="100%"
   height="100%"
   sodipodi:docname="ivda_website_logo_2.svg"
   inkscape:export-filename="C:\Users\Alex\Documents\IVDA1516\IVDA_logo[1]\IVDA_logo[1]noweb_prep_website.png"
   inkscape:export-xdpi="349.99753"
   inkscape:export-ydpi="349.99753"><metadata
   id="metadata3076"><rdf:RDF><cc:Work
       rdf:about=""><dc:format>image/svg+xml</dc:format><dc:type
         rdf:resource="http://purl.org/dc/dcmitype/StillImage" /><dc:title></dc:title></cc:Work></rdf:RDF></metadata><defs
   id="defs3074">
	
	
	
	
</defs><sodipodi:namedview
   pagecolor="#ffffff"
   bordercolor="#666666"
   borderopacity="1"
   objecttolerance="10"
   gridtolerance="10"
   guidetolerance="10"
   inkscape:pageopacity="0"
   inkscape:pageshadow="2"
   inkscape:window-width="1600"
   inkscape:window-height="838"
   id="namedview3072"
   showgrid="false"
   inkscape:zoom="0.59074074"
   inkscape:cx="415.07839"
   inkscape:cy="102.27119"
   inkscape:window-x="-8"
   inkscape:window-y="-8"
   inkscape:window-maximized="1"
   inkscape:current-layer="svg2"
   fit-margin-top="0"
   fit-margin-left="0"
   fit-margin-right="0"
   fit-margin-bottom="0" />
<style
   type="text/css"
   id="style2986">
	.st0{fill:#0067B1;}
	.st1{fill:#B5121B;}
</style>
<g
   id="g2990"
   transform="matrix(0.57250455,0,0,0.57250455,-9.1028223,-0.57250455)">
		<path
   style="fill:#0067b1"
   inkscape:connector-curvature="0"
   id="path2992"
   d="m 39,211.9 c 0,0 19.1,-9.5 32.1,-17.9 12.9,-8.4 21.5,-26.8 33.5,-45.8 12,-19 35.6,-36.8 42.1,-35.1 2.5,5.1 0.6,7.4 0.6,7.4 0,0 -14.6,9.5 -27.1,23.5 -12.5,14 -21.1,37.2 -40.7,52.4 C 59.9,211.6 39,211.9 39,211.9 z"
   class="st0" />
		<path
   style="fill:#0067b1"
   inkscape:connector-curvature="0"
   id="path2994"
   d="m 183.8,98.6 c 0,0 7.7,-2.6 9.5,-6.5 0,-8.5 2.9,-19 2.9,-22.8 0,-3.8 -5.2,-8.5 -3.5,-13.3 1.8,-4.7 4.2,-10.2 0.7,-12.5 -3.6,-2.3 -9.9,-1.2 -9.9,-1.2 0,0 -2.6,5.5 1.2,9.3 -1.7,5.3 -3.7,9.9 -1.7,11.8 2,2 3.5,3.6 2.4,14 -1.1,10.4 -1.6,21.2 -1.6,21.2 z"
   class="st0" />
		<path
   style="fill:#0067b1"
   inkscape:connector-curvature="0"
   id="path2996"
   d="m 205.6,115.9 c -0.6,0.4 -10.7,1.6 -8.8,-6.6 8.9,-5.5 20.6,-15.1 32.5,-33.3 C 241.2,57.8 251.5,35.6 271.6,22.5 291.5,9.5 310.8,1 310.8,1 l -3.2,6.3 c 0,0 -13.5,4.2 -25.5,13.6 -12,9.4 -20.1,24.1 -30.2,39.8 -10.2,15.6 -19.4,38.9 -46.3,55.2 z"
   class="st0" />
		<path
   style="fill:#0067b1"
   inkscape:connector-curvature="0"
   id="path2998"
   d="m 193.8,125.3 c -1.9,-12.1 -10,-16.4 -15.5,-16.4 -5.5,0 -16.9,2.8 -27.2,23.9 -10.3,21.1 -16.2,45.3 -15.3,66.3 0.9,21 1.8,23.3 1.8,23.3 0,0 -18.4,28.4 -34.3,49.2 -15.8,20.7 -84.5,98.3 -87.4,111.3 l 12.5,-9.1 c 0,0 30,-34.2 48.7,-56.7 18.8,-22.5 32.7,-36.6 49.3,-59 11.9,-14.4 14.6,-16 14.6,-16 0,0 0.8,36.2 -4.1,56.9 -4.8,20.6 -19,52.5 -30.9,67.9 11.7,-9.3 22.7,-20.3 22.7,-20.3 0,0 12.7,-13 19.9,-39.2 7.3,-26.2 8.2,-56 6.2,-74 -0.5,-4.8 -1.2,-10 -1.7,-15.3 4,-5.1 11.6,-15.2 20.1,-29.4 12.7,-21.2 22.5,-51.3 20.6,-63.4 z m -43.7,52.8 c 0,-14.6 11.8,-51.2 25.3,-53.4 10.8,-2 9.6,7.8 4.2,25.2 -4.9,15.7 -15.5,37.2 -28.1,51.9 -0.9,-8.8 -1.4,-17.1 -1.4,-23.7 z"
   class="st0" />
		<path
   style="fill:#0067b1"
   inkscape:connector-curvature="0"
   id="path3000"
   d="m 308.7,22.1 c 0,0 -2.4,7.7 -9,24.4 -6.6,16.7 -14.1,43.6 -11.3,60.1 2.9,16.5 8.3,34 8.3,34 0,0 -3.2,8.1 -9.8,1.5 -3.9,-15.2 -14.6,-40.8 -6.5,-65.3 8.1,-24.5 17.9,-35.9 17.9,-35.9 0,0 -1.8,-16.2 10.4,-18.8 z"
   class="st0" />
		<path
   style="fill:#0067b1"
   inkscape:connector-curvature="0"
   id="path3002"
   d="m 364.9,289 c -12.8,-7.1 -33.8,-20.5 -50.8,-45.7 -5.2,-7.7 -9.8,-15.7 -13.5,-23.5 7.9,-9.1 14.1,-17.4 18.9,-25.3 11,-18.2 15.9,-49.9 2,-51 -14.6,-1.1 -41.8,22 -37.9,56.4 0.8,7.1 2.7,14.3 5.4,21.3 -0.1,0.1 -0.2,0.2 -0.3,0.3 -36.8,40.5 -72.3,67.5 -111.9,87.7 -8,4.1 -15.5,7 -22.3,9.2 -6.7,-8.1 -9,-12.2 -9,-12.2 0,0 0,2.6 -1.1,2.6 1.9,3.7 3.8,7.3 5.9,10.8 -24.2,6.7 -39,2.6 -39,2.6 4.8,7.2 12.8,12.8 42.1,6.2 0.6,-0.1 1.3,-0.3 2,-0.5 17.4,26.6 42.2,48.8 79.4,57.5 45.9,10.7 75.6,5.5 111.4,-8.7 35.8,-14.2 41.7,-33.2 45.4,-46.9 4.3,-21.4 -13.9,-33.7 -26.7,-40.8 z M 296.5,171.6 c 11,-18 24.8,-26 28,-13.2 2.8,11.4 -5.5,28.9 -27.2,53.7 -5.8,-15.3 -7.3,-29.8 -0.8,-40.5 z M 381.3,328 c -4.2,22.9 -36.2,47.8 -87.4,51.6 -51.1,3.8 -90.4,-10.1 -115.8,-35.5 -7,-7 -12.5,-12.9 -17,-18 29.3,-9.7 70.5,-38.7 98.1,-64.4 13,-12.2 24,-22.9 33.1,-32.7 11.3,23.7 31,44.7 47.3,55.6 22.9,15.1 44.9,31.5 41.7,43.4 z"
   class="st0" />
		<path
   style="fill:#0067b1"
   inkscape:connector-curvature="0"
   id="path3004"
   d="m 335.8,151.7 v -3.1 c 0,0 6.1,-5.8 19.8,8 13.7,13.7 17.5,24.7 27.7,47.4 9.9,20.9 17.4,28.5 22,29.6 4.6,1.2 14,7 16.4,15.4 -10.5,-1 -36,-9.3 -52.5,-44.2 -12.7,-25.2 -10.5,-41.1 -33.4,-53.1 z"
   class="st0" />
		<path
   style="fill:#0067b1"
   inkscape:connector-curvature="0"
   id="path3006"
   d="m 406,148.3 c -19.7,-5.1 -31.9,-11.8 -42.7,-24.9 -14,-18.6 -28.3,-29 -28.3,-29 0,0 -6.8,-1.7 -7.4,-1.7 l 0.1,2 c 16.7,14.2 28.9,38.9 44.2,46.8 15.2,8 35,9.2 35,9.2 0,0 0,-1.5 -0.9,-2.4 z"
   class="st0" />
		<path
   style="fill:#0067b1"
   inkscape:connector-curvature="0"
   id="path3008"
   d="m 309.1,131.8 c 0,0 3.1,0.5 3.1,-5.8 0,-6.3 1.7,-8.8 3.7,-13.1 2,-4.4 -0.3,-14.1 -0.3,-14.1 0,0 7.8,-6.2 7.8,-10.5 9,0.9 20.1,0 32.5,14.4 12.5,14.4 15.6,23.9 31,31.2 15.4,7.4 34.4,5.5 37.1,-2.3 -6.6,3.1 -19.6,5 -32.5,-5.2 C 378.6,116.3 364.6,100 357.6,93 c -7,-7 -24.4,-16.4 -35,-11.4 -7.4,8.6 -16.8,13.5 -12.8,26.5 -5.4,9.9 -6.5,17.9 -0.7,23.7 z"
   class="st0" />
	</g><g
   id="g3010"
   style="fill:#f2f3f3;fill-opacity:1"
   transform="translate(-208.87805,-103.43876)">
		<path
   inkscape:connector-curvature="0"
   id="path3012"
   d="m 506.2,193.6 h 7.4 v 73.3 h -7.4 v -73.3 z"
   style="fill:#f2f3f3;fill-opacity:1" />
		<path
   inkscape:connector-curvature="0"
   id="path3014"
   d="m 529.1,212.6 h 7 v 9.7 c 2.8,-3.7 5.9,-6.5 9.3,-8.3 3.4,-1.8 7.1,-2.8 11.1,-2.8 4.1,0 7.7,1 10.8,3.1 3.1,2.1 5.5,4.8 7,8.3 1.5,3.5 2.2,8.9 2.2,16.3 v 27.9 h -7 v -25.9 c 0,-6.3 -0.3,-10.4 -0.8,-12.5 -0.8,-3.6 -2.4,-6.3 -4.7,-8.1 -2.3,-1.8 -5.3,-2.7 -9,-2.7 -4.2,0 -8,1.4 -11.3,4.2 -3.3,2.8 -5.5,6.3 -6.6,10.4 -0.7,2.7 -1,7.6 -1,14.8 v 19.9 h -7 v -54.3 z"
   style="fill:#f2f3f3;fill-opacity:1" />
		<path
   inkscape:connector-curvature="0"
   id="path3016"
   d="m 597.6,192.6 h 7 v 20 h 11 v 6 h -11 v 48.3 h -7 v -48.3 h -9.5 v -6 h 9.5 v -20 z"
   style="fill:#f2f3f3;fill-opacity:1" />
		<path
   inkscape:connector-curvature="0"
   id="path3018"
   d="m 671.6,248.8 5.9,3.1 c -1.9,3.8 -4.2,6.8 -6.7,9.2 -2.5,2.3 -5.4,4.1 -8.5,5.3 -3.2,1.2 -6.7,1.8 -10.7,1.8 -8.9,0 -15.8,-2.9 -20.8,-8.7 -5,-5.8 -7.5,-12.3 -7.5,-19.7 0,-6.9 2.1,-13 6.3,-18.4 5.4,-6.8 12.5,-10.3 21.5,-10.3 9.2,0 16.6,3.5 22.2,10.5 3.9,4.9 5.9,11.1 6,18.5 h -48.9 c 0.1,6.3 2.2,11.5 6.1,15.6 3.9,4 8.7,6.1 14.5,6.1 2.8,0 5.5,-0.5 8.1,-1.4 2.6,-1 4.8,-2.2 6.7,-3.8 1.7,-1.6 3.7,-4.2 5.8,-7.8 z m 0,-14.6 c -0.9,-3.7 -2.3,-6.7 -4.1,-8.9 -1.8,-2.2 -4.1,-4 -7.1,-5.4 -2.9,-1.4 -6,-2 -9.3,-2 -5.3,0 -9.9,1.7 -13.8,5.1 -2.8,2.5 -4.9,6.2 -6.4,11.2 h 40.7 z"
   style="fill:#f2f3f3;fill-opacity:1" />
		<path
   inkscape:connector-curvature="0"
   id="path3020"
   d="m 689.6,212.6 h 7 v 7.9 c 2.1,-3.1 4.4,-5.4 6.8,-7 2.4,-1.5 4.8,-2.3 7.4,-2.3 1.9,0 4,0.6 6.2,1.8 l -3.6,5.9 c -1.5,-0.6 -2.7,-0.9 -3.7,-0.9 -2.3,0 -4.6,1 -6.8,2.9 -2.2,1.9 -3.8,4.9 -5,8.9 -0.9,3.1 -1.3,9.3 -1.3,18.8 V 267 h -7 v -54.4 z"
   style="fill:#f2f3f3;fill-opacity:1" />
		<path
   inkscape:connector-curvature="0"
   id="path3022"
   d="m 746.7,193.6 h 8 l 24.3,56.7 24.7,-56.7 h 8 l -31.9,73.3 h -1.6 l -31.5,-73.3 z"
   style="fill:#f2f3f3;fill-opacity:1" />
		<path
   inkscape:connector-curvature="0"
   id="path3024"
   d="m 864.5,212.6 v 54.3 h -7 v -9.3 c -2.9,3.6 -6.2,6.2 -9.8,8 -3.6,1.8 -7.6,2.7 -11.9,2.7 -7.6,0 -14.2,-2.8 -19.6,-8.3 -5.4,-5.6 -8.1,-12.3 -8.1,-20.3 0,-7.8 2.7,-14.5 8.2,-20 5.5,-5.5 12,-8.3 19.7,-8.3 4.4,0 8.4,0.9 12,2.8 3.6,1.9 6.7,4.7 9.5,8.5 v -10 h 7 z m -27.9,5.4 c -3.9,0 -7.4,1 -10.7,2.9 -3.3,1.9 -5.9,4.6 -7.8,8 -1.9,3.5 -2.9,7.1 -2.9,11 0,3.8 1,7.5 2.9,11 1.9,3.5 4.6,6.2 7.8,8.1 3.3,1.9 6.8,2.9 10.5,2.9 3.8,0 7.4,-1 10.8,-2.9 3.4,-1.9 6,-4.5 7.8,-7.8 1.8,-3.3 2.7,-7 2.7,-11.1 0,-6.3 -2.1,-11.5 -6.2,-15.7 -3.9,-4.3 -8.9,-6.4 -14.9,-6.4 z"
   style="fill:#f2f3f3;fill-opacity:1" />
		<path
   inkscape:connector-curvature="0"
   id="path3026"
   d="m 877.5,212.6 h 7 v 7.9 c 2.1,-3.1 4.4,-5.4 6.8,-7 2.4,-1.5 4.8,-2.3 7.4,-2.3 1.9,0 4,0.6 6.2,1.8 l -3.6,5.9 c -1.5,-0.6 -2.7,-0.9 -3.7,-0.9 -2.3,0 -4.6,1 -6.8,2.9 -2.2,1.9 -3.8,4.9 -5,8.9 -0.9,3.1 -1.3,9.3 -1.3,18.8 V 267 h -7 v -54.4 z"
   style="fill:#f2f3f3;fill-opacity:1" />
		<path
   inkscape:connector-curvature="0"
   id="path3028"
   d="m 938.2,218.3 -4.5,4.6 c -3.7,-3.6 -7.4,-5.4 -11,-5.4 -2.3,0 -4.2,0.8 -5.8,2.2 -1.6,1.5 -2.4,3.2 -2.4,5.3 0,1.8 0.7,3.5 2,5.1 1.3,1.6 4.1,3.6 8.4,5.8 5.2,2.7 8.7,5.3 10.6,7.8 1.8,2.5 2.8,5.4 2.8,8.5 0,4.5 -1.6,8.2 -4.7,11.3 -3.1,3.1 -7,4.6 -11.7,4.6 -3.1,0 -6.1,-0.7 -9,-2 -2.9,-1.3 -5.2,-3.2 -7.1,-5.6 l 4.4,-5 c 3.6,4 7.4,6 11.4,6 2.8,0 5.2,-0.9 7.2,-2.7 2,-1.8 3,-3.9 3,-6.4 0,-2 -0.7,-3.8 -1.9,-5.4 -1.3,-1.5 -4.2,-3.5 -8.8,-5.8 -4.9,-2.5 -8.2,-5 -10,-7.5 -1.8,-2.4 -2.6,-5.2 -2.6,-8.4 0,-4.1 1.4,-7.5 4.2,-10.2 2.8,-2.7 6.4,-4.1 10.7,-4.1 4.7,0.2 9.7,2.6 14.8,7.3 z"
   style="fill:#f2f3f3;fill-opacity:1" />
		<path
   inkscape:connector-curvature="0"
   id="path3030"
   d="m 952.9,190.3 c 1.6,0 3,0.6 4.1,1.7 1.1,1.1 1.7,2.5 1.7,4.1 0,1.6 -0.6,2.9 -1.7,4 -1.1,1.1 -2.5,1.7 -4.1,1.7 -1.6,0 -2.9,-0.6 -4,-1.7 -1.1,-1.1 -1.7,-2.5 -1.7,-4 0,-1.6 0.6,-3 1.7,-4.1 1.1,-1.1 2.4,-1.7 4,-1.7 z m -3.5,22.3 h 7 v 54.3 h -7 v -54.3 z"
   style="fill:#f2f3f3;fill-opacity:1" />
		<path
   inkscape:connector-curvature="0"
   id="path3032"
   d="m 977.1,192.6 h 7 v 20 h 11 v 6 h -11 v 48.3 h -7 v -48.3 h -9.5 v -6 h 9.5 v -20 z"
   style="fill:#f2f3f3;fill-opacity:1" />
		<path
   inkscape:connector-curvature="0"
   id="path3034"
   d="m 999.7,212.6 h 7.2 l 18.7,41.6 18.2,-41.6 h 7.4 l -32.4,74.1 h -7.4 l 10.7,-24.4 -22.4,-49.7 z"
   style="fill:#f2f3f3;fill-opacity:1" />
	</g><g
   id="g3036"
   style="fill:#f2f3f3;fill-opacity:1"
   transform="translate(-208.87805,-103.43876)">
		<path
   inkscape:connector-curvature="0"
   id="path3038"
   d="m 1521.2,193.6 34.1,73.3 h -7.8 l -11.4,-24 h -31.8 l -11.3,24 h -8.2 l 34.6,-73.3 h 1.8 z m -0.8,15.3 -12.7,26.8 h 25.2 l -12.5,-26.8 z"
   style="fill:#f2f3f3;fill-opacity:1" />
		<path
   inkscape:connector-curvature="0"
   id="path3040"
   d="m 1592.9,218.3 -4.5,4.6 c -3.7,-3.6 -7.4,-5.4 -11,-5.4 -2.3,0 -4.2,0.8 -5.8,2.2 -1.6,1.5 -2.4,3.2 -2.4,5.3 0,1.8 0.7,3.5 2,5.1 1.3,1.6 4.1,3.6 8.4,5.8 5.2,2.7 8.7,5.3 10.6,7.8 1.8,2.5 2.8,5.4 2.8,8.5 0,4.5 -1.6,8.2 -4.7,11.3 -3.1,3.1 -7,4.6 -11.7,4.6 -3.1,0 -6.1,-0.7 -9,-2 -2.9,-1.3 -5.2,-3.2 -7.1,-5.6 l 4.4,-5 c 3.6,4 7.4,6 11.4,6 2.8,0 5.2,-0.9 7.2,-2.7 2,-1.8 3,-3.9 3,-6.4 0,-2 -0.7,-3.8 -1.9,-5.4 -1.3,-1.5 -4.2,-3.5 -8.8,-5.8 -4.9,-2.5 -8.2,-5 -10,-7.5 -1.8,-2.4 -2.6,-5.2 -2.6,-8.4 0,-4.1 1.4,-7.5 4.2,-10.2 2.8,-2.7 6.4,-4.1 10.7,-4.1 4.7,0.2 9.7,2.6 14.8,7.3 z"
   style="fill:#f2f3f3;fill-opacity:1" />
		<path
   inkscape:connector-curvature="0"
   id="path3042"
   d="m 1632.5,218.3 -4.5,4.6 c -3.7,-3.6 -7.4,-5.4 -11,-5.4 -2.3,0 -4.2,0.8 -5.8,2.2 -1.6,1.5 -2.4,3.2 -2.4,5.3 0,1.8 0.7,3.5 2,5.1 1.3,1.6 4.1,3.6 8.4,5.8 5.2,2.7 8.7,5.3 10.6,7.8 1.8,2.5 2.8,5.4 2.8,8.5 0,4.5 -1.6,8.2 -4.7,11.3 -3.1,3.1 -7,4.6 -11.7,4.6 -3.1,0 -6.1,-0.7 -9,-2 -2.9,-1.3 -5.2,-3.2 -7.1,-5.6 l 4.4,-5 c 3.6,4 7.4,6 11.4,6 2.8,0 5.2,-0.9 7.2,-2.7 2,-1.8 3,-3.9 3,-6.4 0,-2 -0.7,-3.8 -1.9,-5.4 -1.3,-1.5 -4.2,-3.5 -8.8,-5.8 -4.9,-2.5 -8.2,-5 -10,-7.5 -1.8,-2.4 -2.6,-5.2 -2.6,-8.4 0,-4.1 1.4,-7.5 4.2,-10.2 2.8,-2.7 6.4,-4.1 10.7,-4.1 4.7,0.2 9.7,2.6 14.8,7.3 z"
   style="fill:#f2f3f3;fill-opacity:1" />
		<path
   inkscape:connector-curvature="0"
   id="path3044"
   d="m 1670.4,211.2 c 8.3,0 15.3,3 20.7,9.1 5,5.5 7.5,12 7.5,19.6 0,7.6 -2.6,14.2 -7.9,19.9 -5.3,5.7 -12,8.5 -20.3,8.5 -8.3,0 -15.1,-2.8 -20.4,-8.5 -5.3,-5.7 -7.9,-12.3 -7.9,-19.9 0,-7.5 2.5,-14 7.5,-19.5 5.4,-6.1 12.4,-9.2 20.8,-9.2 z m -0.1,6.9 c -5.8,0 -10.7,2.1 -14.9,6.4 -4.2,4.3 -6.2,9.5 -6.2,15.5 0,3.9 0.9,7.6 2.8,10.9 1.9,3.4 4.4,6 7.7,7.8 3.3,1.8 6.8,2.8 10.6,2.8 3.9,0 7.4,-0.9 10.6,-2.8 3.2,-1.9 5.8,-4.5 7.7,-7.8 1.9,-3.4 2.8,-7 2.8,-10.9 0,-6.1 -2.1,-11.2 -6.3,-15.5 -4.1,-4.3 -9,-6.4 -14.8,-6.4 z"
   style="fill:#f2f3f3;fill-opacity:1" />
		<path
   inkscape:connector-curvature="0"
   id="path3046"
   d="m 1764.1,223.7 -5.5,3.4 c -4.8,-6.3 -11.3,-9.5 -19.6,-9.5 -6.6,0 -12.1,2.1 -16.5,6.4 -4.4,4.3 -6.6,9.5 -6.6,15.6 0,4 1,7.7 3,11.2 2,3.5 4.8,6.2 8.3,8.2 3.5,1.9 7.4,2.9 11.8,2.9 8,0 14.5,-3.2 19.5,-9.5 l 5.5,3.6 c -2.6,3.9 -6.1,6.9 -10.5,9 -4.4,2.1 -9.4,3.2 -14.9,3.2 -8.6,0 -15.7,-2.7 -21.4,-8.2 -5.7,-5.4 -8.5,-12.1 -8.5,-19.9 0,-5.2 1.3,-10.1 4,-14.6 2.6,-4.5 6.3,-8 10.9,-10.5 4.6,-2.5 9.8,-3.8 15.5,-3.8 3.6,0 7.1,0.5 10.4,1.6 3.3,1.1 6.2,2.5 8.5,4.2 2.5,1.8 4.5,4 6.1,6.7 z"
   style="fill:#f2f3f3;fill-opacity:1" />
		<path
   inkscape:connector-curvature="0"
   id="path3048"
   d="m 1780,190.3 c 1.6,0 3,0.6 4.1,1.7 1.1,1.1 1.7,2.5 1.7,4.1 0,1.6 -0.6,2.9 -1.7,4 -1.1,1.1 -2.5,1.7 -4.1,1.7 -1.6,0 -2.9,-0.6 -4,-1.7 -1.1,-1.1 -1.7,-2.5 -1.7,-4 0,-1.6 0.6,-3 1.7,-4.1 1.1,-1.1 2.4,-1.7 4,-1.7 z m -3.5,22.3 h 7 v 54.3 h -7 v -54.3 z"
   style="fill:#f2f3f3;fill-opacity:1" />
		<path
   inkscape:connector-curvature="0"
   id="path3050"
   d="m 1851.9,212.6 v 54.3 h -7 v -9.3 c -2.9,3.6 -6.2,6.2 -9.8,8 -3.6,1.8 -7.6,2.7 -11.9,2.7 -7.6,0 -14.2,-2.8 -19.6,-8.3 -5.4,-5.6 -8.1,-12.3 -8.1,-20.3 0,-7.8 2.7,-14.5 8.2,-20 5.5,-5.5 12,-8.3 19.7,-8.3 4.4,0 8.4,0.9 12,2.8 3.6,1.9 6.7,4.7 9.5,8.5 v -10 h 7 z M 1824,218 c -3.9,0 -7.4,1 -10.7,2.9 -3.3,1.9 -5.9,4.6 -7.8,8 -1.9,3.5 -2.9,7.1 -2.9,11 0,3.8 1,7.5 2.9,11 1.9,3.5 4.6,6.2 7.8,8.1 3.3,1.9 6.8,2.9 10.5,2.9 3.8,0 7.4,-1 10.8,-2.9 3.4,-1.9 6,-4.5 7.8,-7.8 1.8,-3.3 2.7,-7 2.7,-11.1 0,-6.3 -2.1,-11.5 -6.2,-15.7 -3.9,-4.3 -8.9,-6.4 -14.9,-6.4 z"
   style="fill:#f2f3f3;fill-opacity:1" />
		<path
   inkscape:connector-curvature="0"
   id="path3052"
   d="m 1873.8,192.6 h 7 v 20 h 11 v 6 h -11 v 48.3 h -7 v -48.3 h -9.5 v -6 h 9.5 v -20 z"
   style="fill:#f2f3f3;fill-opacity:1" />
		<path
   inkscape:connector-curvature="0"
   id="path3054"
   d="m 1904.6,190.3 c 1.6,0 3,0.6 4.1,1.7 1.1,1.1 1.7,2.5 1.7,4.1 0,1.6 -0.6,2.9 -1.7,4 -1.1,1.1 -2.5,1.7 -4.1,1.7 -1.6,0 -2.9,-0.6 -4,-1.7 -1.1,-1.1 -1.7,-2.5 -1.7,-4 0,-1.6 0.6,-3 1.7,-4.1 1.1,-1.1 2.5,-1.7 4,-1.7 z m -3.5,22.3 h 7 v 54.3 h -7 v -54.3 z"
   style="fill:#f2f3f3;fill-opacity:1" />
		<path
   inkscape:connector-curvature="0"
   id="path3056"
   d="m 1948.2,211.2 c 8.3,0 15.3,3 20.7,9.1 5,5.5 7.5,12 7.5,19.6 0,7.6 -2.6,14.2 -7.9,19.9 -5.3,5.7 -12,8.5 -20.3,8.5 -8.3,0 -15.1,-2.8 -20.4,-8.5 -5.3,-5.7 -7.9,-12.3 -7.9,-19.9 0,-7.5 2.5,-14 7.5,-19.5 5.5,-6.1 12.4,-9.2 20.8,-9.2 z m 0,6.9 c -5.8,0 -10.7,2.1 -14.9,6.4 -4.2,4.3 -6.2,9.5 -6.2,15.5 0,3.9 0.9,7.6 2.8,10.9 1.9,3.4 4.4,6 7.7,7.8 3.3,1.8 6.8,2.8 10.6,2.8 3.9,0 7.4,-0.9 10.6,-2.8 3.2,-1.9 5.8,-4.5 7.7,-7.8 1.9,-3.4 2.8,-7 2.8,-10.9 0,-6.1 -2.1,-11.2 -6.3,-15.5 -4.1,-4.3 -9.1,-6.4 -14.8,-6.4 z"
   style="fill:#f2f3f3;fill-opacity:1" />
		<path
   inkscape:connector-curvature="0"
   id="path3058"
   d="m 1989.4,212.6 h 7 v 9.7 c 2.8,-3.7 5.9,-6.5 9.3,-8.3 3.4,-1.8 7.1,-2.8 11.1,-2.8 4.1,0 7.7,1 10.8,3.1 3.1,2.1 5.5,4.8 7,8.3 1.5,3.5 2.2,8.9 2.2,16.3 v 27.9 h -7 v -25.9 c 0,-6.3 -0.3,-10.4 -0.8,-12.5 -0.8,-3.6 -2.4,-6.3 -4.7,-8.1 -2.3,-1.8 -5.3,-2.7 -9,-2.7 -4.2,0 -8,1.4 -11.3,4.2 -3.3,2.8 -5.5,6.3 -6.6,10.4 -0.7,2.7 -1,7.6 -1,14.8 v 19.9 h -7 v -54.3 z"
   style="fill:#f2f3f3;fill-opacity:1" />
	</g><g
   id="g3060"
   transform="translate(-208.87805,-103.43876)">
		<path
   style="fill:#b5121b"
   inkscape:connector-curvature="0"
   id="path3062"
   d="m 1069.1,264.2 c 4.3,-4.9 8.4,-11 10.4,-14.9 5.8,-10.3 45,-78 51.8,-93.6 0,-1 -1.3,-1.3 -2,-1.3 -10.7,0 -21.1,3.1 -32,3.3 -3,0 -4.6,-1 -4.6,-4.1 0,-0.8 0.3,-3.6 1.3,-3.6 0.5,0 6.1,3.1 10.9,3.1 6.1,0 17.5,-0.8 24.6,-1.3 8.4,-0.3 16.5,-0.8 24.9,-0.8 26.2,0 54.9,4.9 54.9,35.9 0,28.7 -22.6,60 -48.3,71.6 -13,5.6 -26.9,8.2 -40.9,8.2 -11.4,0 -21.8,-1 -32,-6.4 -1.5,-0.8 -2.8,-1.3 -4.3,-1.3 -2.8,0 -8.6,2.8 -13.2,6.4 l -1.5,-1.2 z m 83.3,-110.5 c -3.6,0 -6.1,-0.3 -8.1,3.1 -16.8,26.4 -39.4,67.2 -51.8,92.6 -0.5,1 -1,2.3 -1,3.1 0,1 0.5,2.1 1.5,3.1 5.8,6.2 16.8,9.2 27.2,9.2 41.1,0 75.9,-34.6 75.9,-79.3 0,-15.2 -8.7,-31.8 -43.7,-31.8 z"
   class="st1" />
		<path
   style="fill:#b5121b"
   inkscape:connector-curvature="0"
   id="path3064"
   d="m 1239.2,270.4 c -6.9,0 -9.1,-3.8 -9.1,-9 0,-4.6 3,-13.3 8.6,-22.6 -8.9,11.8 -24.1,27.4 -33.8,27.4 -3.8,0 -5.3,-1.5 -5.3,-5.4 0,-15.6 26.7,-52.6 55.1,-52.6 1.8,-3.3 3,-4.6 4.3,-5.1 l 7.1,-2.1 0.5,0.3 c -1.5,1.8 -3,4.4 -4.8,7.2 1.8,0 6.1,0.5 7.6,0.8 1.8,0.8 1.5,2.1 0.5,2.1 -2,-0.5 -7.1,-1 -9.1,-1 -15.5,27.7 -22.6,43.1 -22.6,51.1 0,3.1 1.3,5.4 5.8,5.4 10.7,0 31,-17.2 47.5,-38 0.8,-1 1.5,-0.3 1.5,0.8 -15.4,19.4 -38.3,40.7 -53.8,40.7 z m 14.3,-60.3 c -22.9,0 -43.9,38.7 -43.9,49.3 0,1.5 0.5,2.1 1.5,2.1 3.8,0 18.5,-11.5 27.9,-25.7 5.3,-8.2 10.7,-18.2 14.7,-25.4 l -0.2,-0.3 z"
   class="st1" />
		<path
   style="fill:#b5121b"
   inkscape:connector-curvature="0"
   id="path3066"
   d="m 1307.6,268.1 c -4.1,0 -8.1,-0.8 -8.1,-5.4 0,-9.7 15.5,-30.5 21.6,-45.2 0.8,-1.8 0,-3.3 -1.5,-2.3 -7.4,4.9 -21.6,17.4 -27.9,24.9 -5.3,8.5 -8.4,14.9 -14.2,23.9 -0.5,0.8 -1,1.5 -1.5,1.5 -1.8,0 -3,-5.4 -3,-6.4 0,-3.1 5.1,-8.7 10.2,-15.1 5.3,-11 11.7,-24.1 15.7,-33.6 0.5,-0.8 1.5,-1.3 2.3,-1.3 2,0 4.1,2.1 4.1,4.1 0,1.3 -6.3,10.5 -10.9,21 12.7,-11.5 32.3,-27.7 36.1,-27.7 1.3,0 2.8,2.1 2.8,3.3 0,1 -0.5,1.8 -1.3,3.1 -7.6,11 -23.4,36.9 -23.4,46.4 0,4.1 1.5,5.4 5.3,5.4 11.2,0 33.8,-19.5 43.2,-34.6 0.8,-1 2.8,-0.5 1.3,1.5 -12.5,17.2 -33.3,36.5 -50.8,36.5 z"
   class="st1" />
		<path
   style="fill:#b5121b"
   inkscape:connector-curvature="0"
   id="path3068"
   d="m 1372.1,263.5 c -5.1,2.1 -9.1,2.8 -13,2.8 -8.9,0 -14,-3.8 -14,-11.8 0,-2.8 0.5,-5.9 2,-9.7 6.4,-15.9 19,-29.2 32.5,-35.1 1.8,-0.8 3.6,-1.3 5.1,-1.3 6.1,0 9.4,2.8 9.4,7.4 0,2.3 -0.5,4.4 -1.8,5.9 -1,1 -2.8,2.6 -5.1,4.4 l -0.8,-0.3 c 0.5,-1.3 0.8,-2.8 0.8,-4.4 0,-3.3 -2.5,-7.2 -7.9,-7.2 -12.7,0 -24.6,18.5 -24.6,37.7 0,7.2 4.3,10.8 10.2,10.8 9.4,0 26.9,-11 45,-33.6 1.8,-1.8 2.8,-0.3 1.3,1.3 -10.4,12.8 -26.2,27.9 -39.1,33.1 z"
   class="st1" />
		<path
   style="fill:#b5121b"
   inkscape:connector-curvature="0"
   id="path3070"
   d="m 1410.9,266.5 c -7.6,0 -11.9,-3.3 -11.9,-10.8 0,-19 22.1,-47.5 39.4,-47.5 4.6,0 6.3,2.1 6.3,4.6 0,8 -9.9,21 -31.2,21 -1.8,3.1 -4.3,10.5 -4.3,17.4 0,6.7 2.8,10.5 9.4,10.5 15.7,0 34.3,-16.9 43.2,-28.5 0.5,-0.8 1.8,-0.3 1.8,0.8 -11.5,14.8 -33.4,32.5 -52.7,32.5 z m 22.6,-55.6 c -6.9,0 -14.7,11.8 -19,20.5 0.8,0.3 2.8,0.5 3.8,0.5 9.7,0 18.5,-8.2 18.5,-17.7 0,-1.8 -1.2,-3.3 -3.3,-3.3 z"
   class="st1" />
	</g>
</svg>